<svg width="552" height="136" viewBox="0 0 552 136" xmlns="http://www.w3.org/2000/svg">
    <path d="M34.16 81.544c-3.285 0-6.067-.877-8.344-2.632-2.277-1.755-3.976-3.995-5.096-6.72a23.665 23.665 0 0 1-1.792-8.456 114.46 114.46 0 0 0-6.888 6.328 75.34 75.34 0 0 0-5.768 6.44l.224.784c.15.224.224.448.224.672v.672c0 .672-.187 1.232-.56 1.68a3.41 3.41 0 0 1-1.456 1.008c-.448.15-.859.224-1.232.224-.523 0-1.064-.15-1.624-.448-.56-.299-.952-.71-1.176-1.232C.224 78.819 0 77.661 0 76.392c0-2.763.747-5.843 2.24-9.24a143.063 143.063 0 0 1 4.816-9.912c-.896 0-1.344-.299-1.344-.896 0-.523.336-1.045 1.008-1.568 1.568-.97 2.501-1.755 2.8-2.352 1.344-2.688 3.099-5.805 5.264-9.352 2.165-3.547 4.685-7.261 7.56-11.144a164.267 164.267 0 0 1 9.184-11.312c3.248-3.659 6.627-6.981 10.136-9.968 3.51-2.987 7.019-5.376 10.528-7.168 3.51-1.792 6.87-2.688 10.08-2.688 2.613 0 4.461.579 5.544 1.736 1.083 1.157 1.624 2.52 1.624 4.088 0 1.12-.205 2.259-.616 3.416a16.767 16.767 0 0 1-1.512 3.192c-2.016 3.285-4.648 6.57-7.896 9.856-3.248 3.285-6.85 6.459-10.808 9.52a166.359 166.359 0 0 1-12.152 8.568 251.718 251.718 0 0 1-11.872 7.168c-3.77 2.128-7.112 3.864-10.024 5.208a214.043 214.043 0 0 0-4.144 8.288c-1.419 2.987-2.539 5.787-3.36 8.4 1.493-1.493 3.304-3.173 5.432-5.04a235.042 235.042 0 0 1 6.776-5.712c.15-.747.299-1.475.448-2.184.15-.71.373-1.363.672-1.96.896-2.539 2.053-3.808 3.472-3.808.597 0 1.12.224 1.568.672.448.448.821.97 1.12 1.568 3.21-2.39 6.384-4.573 9.52-6.552 3.136-1.979 6.03-3.565 8.68-4.76 2.65-1.195 4.797-1.792 6.44-1.792 2.39 0 3.584.97 3.584 2.912 0 .97-.41 1.867-1.232 2.688-.821.821-1.979 1.344-3.472 1.568-4.032.597-8.083 1.81-12.152 3.64a75.76 75.76 0 0 0-11.816 6.664c-.896 2.315-1.344 4.816-1.344 7.504 0 3.21.784 6.03 2.352 8.456 1.568 2.427 4.181 3.64 7.84 3.64 2.464 0 5.115-.504 7.952-1.512 2.837-1.008 5.693-2.296 8.568-3.864a88.567 88.567 0 0 0 8.176-5.04c2.576-1.792 4.835-3.472 6.776-5.04.373-.373.765-.69 1.176-.952.41-.261.765-.541 1.064-.84.523-.373 1.27-.97 2.24-1.792.224-.075.485-.112.784-.112.597 0 .896.299.896.896 0 .299-.187.71-.56 1.232-.448.523-1.456 1.493-3.024 2.912-1.568 1.419-3.49 3.005-5.768 4.76a119.93 119.93 0 0 1-7.336 5.208 69.922 69.922 0 0 1-7.84 4.48c-1.568.747-3.621 1.512-6.16 2.296a26.05 26.05 0 0 1-7.728 1.176zM16.688 49.176c5.6-3.136 11.35-6.533 17.248-10.192a134.699 134.699 0 0 0 16.632-12.152c5.19-4.443 9.427-9.427 12.712-14.952.373-.672.765-1.4 1.176-2.184.41-.784.765-1.55 1.064-2.296.075-.299.13-.56.168-.784a3.52 3.52 0 0 0 .056-.56c0-.97-.597-1.456-1.792-1.456-1.419 0-3.267.523-5.544 1.568-2.277 1.045-4.704 2.408-7.28 4.088a81.786 81.786 0 0 0-7.392 5.432c-2.352 1.941-4.312 3.77-5.88 5.488a323.796 323.796 0 0 0-7.784 9.128 209.968 209.968 0 0 0-7.784 10.024c-2.39 3.285-4.256 6.235-5.6 8.848zm135.968-5.264c.597 0 1.157.224 1.68.672.523.299 1.101.71 1.736 1.232a11.29 11.29 0 0 1 1.736 1.792c.224.299.467.579.728.84.261.261.467.579.616.952.224.373.41.765.56 1.176.15.41.224.877.224 1.4 0 1.045-.448 2.315-1.344 3.808a36.342 36.342 0 0 1-4.76 6.44 361.31 361.31 0 0 0-5.32 5.88 7.83 7.83 0 0 1-.728.84 7.83 7.83 0 0 0-.728.84 293.042 293.042 0 0 1 9.464-8.344c3.397-2.875 6.365-5.133 8.904-6.776.821-.523 1.904-1.027 3.248-1.512 1.344-.485 2.613-.728 3.808-.728 1.12 0 2.11.317 2.968.952.859.635 1.288 1.81 1.288 3.528 0 1.493-.299 3.192-.896 5.096a92.34 92.34 0 0 1-1.792 5.208 25.447 25.447 0 0 0-1.232 3.416c-.299 1.083-.448 2.035-.448 2.856 0 2.613 1.419 3.92 4.256 3.92.747 0 1.624-.093 2.632-.28 1.008-.187 2.11-.504 3.304-.952 3.808-1.419 7.672-3.397 11.592-5.936 3.92-2.539 7.448-5.115 10.584-7.728.373-.299.747-.579 1.12-.84.373-.261.71-.504 1.008-.728.373-.299.728-.579 1.064-.84.336-.261.728-.579 1.176-.952.448-.15.747-.224.896-.224.448 0 .672.261.672.784s-.15.97-.448 1.344c-.448.597-1.53 1.68-3.248 3.248-1.717 1.568-3.827 3.323-6.328 5.264a87.009 87.009 0 0 1-8.176 5.6c-2.95 1.792-5.917 3.21-8.904 4.256a26.387 26.387 0 0 1-8.4 1.344c-2.24 0-4.256-.523-6.048-1.568-1.792-1.045-2.688-2.837-2.688-5.376 0-1.493.373-3.248 1.12-5.264a90.36 90.36 0 0 1 1.736-4.144c.635-1.419 1.027-2.837 1.176-4.256.075-.299.112-.579.112-.84v-.616c0-.896-.13-1.456-.392-1.68-.261-.224-.541-.336-.84-.336-.747 0-1.661.28-2.744.84a31.154 31.154 0 0 0-2.968 1.736c-.821.523-2.11 1.55-3.864 3.08a254.994 254.994 0 0 0-5.712 5.152 2043.353 2043.353 0 0 1-5.88 5.432 73.687 73.687 0 0 0-3.416 3.416 658.74 658.74 0 0 0-2.968 3.192 99.308 99.308 0 0 1-2.464 2.576c-.672.672-1.157 1.008-1.456 1.008-1.27 0-1.904-.597-1.904-1.792 0-.747.205-1.568.616-2.464a36.98 36.98 0 0 1 1.512-2.912 91.817 91.817 0 0 1 3.304-5.376c1.232-1.867 2.296-3.397 3.192-4.592.747-.97 1.792-2.352 3.136-4.144a63.254 63.254 0 0 0 3.808-5.712c1.643-2.688 2.464-4.928 2.464-6.72 0-.97-.299-1.717-.896-2.24a8.935 8.935 0 0 1-.896-1.064c-.299-.41-.448-.765-.448-1.064 0-.747.299-1.12.896-1.12zm24.528-16.576c4.853 0 9.744.317 14.672.952a176.28 176.28 0 0 1 14.224 2.408c4.555.896 8.755 1.848 12.6 2.856a470.295 470.295 0 0 1 9.688 2.632c1.792.448 3.957.97 6.496 1.568 2.539.597 5.301 1.157 8.288 1.68l6.608-5.712c-.299-.821.019-1.83.952-3.024.933-1.195 2.259-2.165 3.976-2.912.15-.075.485-.112 1.008-.112.747 0 1.605.112 2.576.336.97.224 1.83.56 2.576 1.008.747.448 1.12 1.008 1.12 1.68 0 .299-.261.71-.784 1.232a13.269 13.269 0 0 1-1.736 1.456c-.635.448-1.064.747-1.288.896-.821.448-1.96 1.213-3.416 2.296a398.779 398.779 0 0 0-5.096 3.864c5.376.821 10.49 1.232 15.344 1.232 3.733 0 7.056-.317 9.968-.952s5.227-1.736 6.944-3.304c1.717-1.568 2.576-3.659 2.576-6.272v-.84c0-.261-.037-.541-.112-.84v-.112c0-.747.41-1.12 1.232-1.12.597 0 1.008.336 1.232 1.008a16.514 16.514 0 0 1 .224 2.688c0 3.584-1.045 6.403-3.136 8.456-2.09 2.053-4.816 3.51-8.176 4.368-3.36.859-6.981 1.288-10.864 1.288-3.21 0-6.477-.224-9.8-.672a276.425 276.425 0 0 1-9.576-1.456 172.145 172.145 0 0 0-9.072 8.064 183.675 183.675 0 0 0-8.512 8.624c-2.613 2.837-4.723 5.45-6.328 7.84-1.605 2.39-2.408 4.33-2.408 5.824 0 2.912 2.352 4.368 7.056 4.368 3.51 0 7.616-.859 12.32-2.576.448-.15.915-.317 1.4-.504.485-.187.99-.392 1.512-.616 3.435-1.493 6.832-3.379 10.192-5.656 3.36-2.277 6.421-4.573 9.184-6.888.373-.373.747-.69 1.12-.952.373-.261.71-.504 1.008-.728.373-.299.728-.579 1.064-.84.336-.261.728-.579 1.176-.952.448-.15.747-.224.896-.224.523 0 .784.261.784.784s-.187.97-.56 1.344c-.448.597-1.53 1.699-3.248 3.304-1.717 1.605-3.845 3.379-6.384 5.32a93.25 93.25 0 0 1-8.232 5.6c-2.95 1.792-5.917 3.21-8.904 4.256-1.493.523-3.696 1.139-6.608 1.848-2.912.71-5.787 1.064-8.624 1.064-2.539 0-4.835-.504-6.888-1.512s-3.08-3.005-3.08-5.992c0-2.016.765-4.312 2.296-6.888 1.53-2.576 3.547-5.32 6.048-8.232a145.903 145.903 0 0 1 8.176-8.736 243.03 243.03 0 0 1 8.68-8.176 63.197 63.197 0 0 1-2.072-.448 137 137 0 0 1-1.848-.448c-3.36-.821-7.373-1.81-12.04-2.968a317.107 317.107 0 0 0-14.952-3.304 229.136 229.136 0 0 0-16.24-2.856c-5.6-.784-11.05-1.176-16.352-1.176-6.944 0-13.253.896-18.928 2.688-5.675 1.792-10.005 4.965-12.992 9.52a7.31 7.31 0 0 1-.672.784c-.224.224-.448.373-.672.448-.075 0-.13.019-.168.056-.037.037-.093.056-.168.056-.448 0-.747-.261-.896-.784-.075-.15-.112-.373-.112-.672 0-.97.261-1.755.784-2.352 2.39-3.51 5.395-6.272 9.016-8.288 3.621-2.016 7.653-3.453 12.096-4.312 4.443-.859 9.053-1.288 13.832-1.288zM100.8 45.032c1.717 0 3.397.112 5.04.336 2.39.373 4.48 1.4 6.272 3.08 1.792 1.68 2.837 3.715 3.136 6.104.15.821.15 1.643 0 2.464 1.195.075 2.37.093 3.528.056a99.579 99.579 0 0 1 3.192-.056c2.24 0 4.536-.168 6.888-.504a67.316 67.316 0 0 0 6.496-1.232c1.979-.485 3.453-.99 4.424-1.512.597-.224 1.045-.336 1.344-.336.597 0 .97.224 1.12.672 0 .747-.71 1.456-2.128 2.128-1.643.747-4.144 1.493-7.504 2.24-3.36.747-6.907 1.195-10.64 1.344-.896.075-1.96.13-3.192.168a135.89 135.89 0 0 1-4.088.056c-.821 2.987-2.408 5.787-4.76 8.4-2.352 2.613-5.096 4.91-8.232 6.888-3.136 1.979-6.328 3.528-9.576 4.648-3.248 1.12-6.179 1.68-8.792 1.68-2.763 0-4.779-.747-6.048-2.24-1.27-1.493-1.904-3.173-1.904-5.04 0-.597.056-1.176.168-1.736.112-.56.243-1.139.392-1.736.523-1.493 1.475-3.323 2.856-5.488A52.793 52.793 0 0 1 83.44 59.2c1.717-1.979 3.36-3.416 4.928-4.312-.747-.821-1.12-1.83-1.12-3.024 0-2.688 2.09-4.667 6.272-5.936a13.852 13.852 0 0 1 3.416-.728 42.709 42.709 0 0 1 3.864-.168zM308.224 43.8c5.376 0 8.064 2.315 8.064 6.944 0 .299-.019.653-.056 1.064-.037.41-.093.84-.168 1.288-.373 1.493-.933 2.501-1.68 3.024-.075.075-.261.168-.56.28-.299.112-.56.019-.784-.28-.224-.373-.261-.896-.112-1.568.224-.821.336-1.53.336-2.128 0-2.09-1.157-3.136-3.472-3.136-1.27 0-2.875.261-4.816.784-1.941.523-4.013 1.213-6.216 2.072a81.212 81.212 0 0 0-6.272 2.744c-1.979.97-3.64 1.941-4.984 2.912-3.435 2.464-6.44 5.17-9.016 8.12-2.576 2.95-4.05 5.507-4.424 7.672a2.114 2.114 0 0 0-.112.672v.56c0 1.12.243 1.867.728 2.24.485.373 1.064.56 1.736.56 1.27 0 2.725-.392 4.368-1.176a37.426 37.426 0 0 0 4.648-2.632c1.456-.97 2.483-1.717 3.08-2.24 2.315-2.016 4.947-4.2 7.896-6.552a238.592 238.592 0 0 0 7.896-6.552c.448-.224 1.008-.336 1.68-.336 1.195 0 2.128.261 2.8.784.299.224.448.672.448 1.344 0 .896-.336 2.016-1.008 3.36A162.133 162.133 0 0 0 305.2 70.4c-.821 1.979-1.232 3.603-1.232 4.872 0 1.867 1.045 2.8 3.136 2.8 1.643 0 4.293-.635 7.952-1.904 3.808-1.419 7.672-3.397 11.592-5.936 3.92-2.539 7.448-5.115 10.584-7.728a5.889 5.889 0 0 1 1.12-.896c.373-.224.71-.485 1.008-.784a7.093 7.093 0 0 0 1.064-.784c.336-.299.728-.597 1.176-.896.448-.15.747-.224.896-.224.523 0 .784.261.784.784 0 .448-.187.859-.56 1.232-.448.597-1.53 1.68-3.248 3.248-1.717 1.568-3.827 3.323-6.328 5.264a87.009 87.009 0 0 1-8.176 5.6c-2.95 1.792-5.917 3.21-8.904 4.256-1.12.373-2.408.728-3.864 1.064a19.131 19.131 0 0 1-4.312.504c-2.24 0-4.275-.579-6.104-1.736-1.83-1.157-2.744-3.267-2.744-6.328 0-1.12.15-2.296.448-3.528a58.061 58.061 0 0 1 1.008-3.64c-1.27 1.27-2.837 2.744-4.704 4.424a68.457 68.457 0 0 1-6.104 4.872c-2.203 1.568-4.405 2.856-6.608 3.864-2.203 1.008-4.275 1.512-6.216 1.512-2.39 0-4.33-.859-5.824-2.576-1.045-1.12-1.568-2.576-1.568-4.368 0-2.165.765-4.573 2.296-7.224 1.53-2.65 3.621-5.283 6.272-7.896 2.65-2.613 5.675-5.003 9.072-7.168 3.397-2.165 6.925-3.883 10.584-5.152 3.957-1.419 7.467-2.128 10.528-2.128zM94.528 58.248c-.896.075-2.165.765-3.808 2.072-1.643 1.307-3.285 2.93-4.928 4.872-1.643 1.941-3.043 3.901-4.2 5.88s-1.736 3.677-1.736 5.096c0 .672.243 1.25.728 1.736.485.485 1.363.728 2.632.728.299 0 .635-.019 1.008-.056.373-.037.784-.093 1.232-.168 1.419-.299 3.192-.97 5.32-2.016 2.128-1.045 4.368-2.37 6.72-3.976a50.324 50.324 0 0 0 6.552-5.32c2.09-1.867 3.995-4.256 5.712-7.168-2.763 0-5.47-.037-8.12-.112-2.65-.075-5.021-.597-7.112-1.568zm9.52-9.296c-3.061 0-5.619.43-7.672 1.288-2.053.859-3.08 1.624-3.08 2.296 0 .15.15.373.448.672.299.299.896.597 1.792.896a56.859 56.859 0 0 0 7.616 1.792 73.98 73.98 0 0 0 8.064.896c.373-1.12.56-2.09.56-2.912 0-1.344-.541-2.501-1.624-3.472-1.083-.97-3.117-1.456-6.104-1.456zm396.48-.896c.448 0 .821.112 1.12.336a7.39 7.39 0 0 1 1.848 1.176c.56.485.84 1.027.84 1.624 0 .672-.373 1.381-1.12 2.128l-2.352 2.24A211.689 211.689 0 0 0 494.48 62c-2.315 2.427-4.312 4.76-5.992 7-1.68 2.24-2.595 4.032-2.744 5.376a2.114 2.114 0 0 0-.112.672v.672c0 1.045.205 1.755.616 2.128.41.373.84.56 1.288.56 1.12 0 2.445-.448 3.976-1.344a39.05 39.05 0 0 0 4.368-2.968c1.381-1.083 2.37-1.885 2.968-2.408a321.75 321.75 0 0 0 6.384-5.88 772.647 772.647 0 0 1 6.16-5.768c0-.672.336-1.288 1.008-1.848.672-.56 1.717-.84 3.136-.84 1.643 0 2.893.71 3.752 2.128.859 1.419 1.288 3.21 1.288 5.376 0 1.717-.261 3.677-.784 5.88s-1.344 4.573-2.464 7.112c5.227-2.315 10.08-4.741 14.56-7.28 4.48-2.539 8.699-5.637 12.656-9.296.448-.373.99-.896 1.624-1.568a93.034 93.034 0 0 1 1.848-1.904 22.852 22.852 0 0 1 2.072-1.68c.635-.448 1.064-.635 1.288-.56.373.15.56.448.56.896 0 .299-.187.747-.56 1.344-.299.523-.784 1.157-1.456 1.904-.672.747-1.53 1.68-2.576 2.8A70.176 70.176 0 0 1 533.568 73.2c-5.077 3.024-11.163 5.955-18.256 8.792a129.515 129.515 0 0 1-12.936 20.384c-4.965 6.421-10.267 12.077-15.904 16.968-5.637 4.89-11.368 8.736-17.192 11.536-5.824 2.8-11.461 4.2-16.912 4.2-2.24 0-4.387-.373-6.44-1.12-2.053-.747-3.752-1.83-5.096-3.248-1.344-1.419-2.016-3.136-2.016-5.152 0-4.48 1.456-8.493 4.368-12.04 2.912-3.547 6.421-6.664 10.528-9.352a64.024 64.024 0 0 1 6.328-3.92 156.016 156.016 0 0 1 6.552-3.36 204.361 204.361 0 0 1 6.16-2.856 581.02 581.02 0 0 0 5.376-2.408c1.717-.747 3.883-1.605 6.496-2.576 2.613-.97 5.413-1.96 8.4-2.968a492.795 492.795 0 0 1 8.904-2.912c2.95-.933 5.619-1.736 8.008-2.408 1.12-2.165 2.11-4.685 2.968-7.56.859-2.875 1.288-5.395 1.288-7.56 0-1.643-.261-2.837-.784-3.584a163.327 163.327 0 0 0-3.752 3.864 93.744 93.744 0 0 1-3.304 3.36 101.728 101.728 0 0 1-4.144 3.752 55.561 55.561 0 0 1-7.168 5.32c-2.464 1.53-4.779 2.296-6.944 2.296s-3.92-.896-5.264-2.688c-.821-1.12-1.232-2.464-1.232-4.032 0-2.464.896-5.096 2.688-7.896 1.792-2.8 3.957-5.432 6.496-7.896.15-.224.523-.672 1.12-1.344.597-.672 1.232-1.381 1.904-2.128.672-.747 1.195-1.27 1.568-1.568.075-.373.243-.84.504-1.4.261-.56.653-1.101 1.176-1.624.448-.523.99-.99 1.624-1.4.635-.41 1.25-.616 1.848-.616zm7.84 36.624c-5.525 1.344-11.312 3.155-17.36 5.432a181.414 181.414 0 0 0-17.64 7.728c-5.712 2.875-10.883 5.917-15.512 9.128-4.63 3.21-8.307 6.421-11.032 9.632-2.725 3.21-4.088 6.31-4.088 9.296 0 1.867.69 3.267 2.072 4.2 1.381.933 3.23 1.4 5.544 1.4 3.136 0 6.795-.765 10.976-2.296 4.181-1.53 8.456-3.64 12.824-6.328a64.922 64.922 0 0 0 11.928-9.408c1.568-1.568 3.435-3.621 5.6-6.16a261.214 261.214 0 0 0 6.552-8.008c2.203-2.8 4.219-5.507 6.048-8.12 1.83-2.613 3.192-4.779 4.088-6.496zM410.592.792c2.613 0 4.461.579 5.544 1.736 1.083 1.157 1.624 2.52 1.624 4.088 0 1.12-.205 2.259-.616 3.416a16.767 16.767 0 0 1-1.512 3.192c-2.016 3.285-4.648 6.57-7.896 9.856a101.776 101.776 0 0 1-4.597 4.364l-.971.856 1.385.183a174.57 174.57 0 0 1 12.751 2.213c4.555.896 8.755 1.848 12.6 2.856a470.295 470.295 0 0 1 9.688 2.632c1.792.448 3.957.97 6.496 1.568 2.539.597 5.301 1.157 8.288 1.68l6.608-5.712c-.299-.821.019-1.83.952-3.024.933-1.195 2.259-2.165 3.976-2.912.15-.075.485-.112 1.008-.112.747 0 1.605.112 2.576.336.97.224 1.83.56 2.576 1.008.747.448 1.12 1.008 1.12 1.68 0 .299-.261.71-.784 1.232a13.269 13.269 0 0 1-1.736 1.456c-.635.448-1.064.747-1.288.896-.821.448-1.96 1.213-3.416 2.296a398.779 398.779 0 0 0-5.096 3.864c5.376.821 10.49 1.232 15.344 1.232 3.733 0 7.056-.317 9.968-.952s5.227-1.736 6.944-3.304c1.717-1.568 2.576-3.659 2.576-6.272v-.84c0-.261-.037-.541-.112-.84v-.112c0-.747.41-1.12 1.232-1.12.597 0 1.008.336 1.232 1.008a16.514 16.514 0 0 1 .224 2.688c0 3.584-1.045 6.403-3.136 8.456-2.09 2.053-4.816 3.51-8.176 4.368-3.36.859-6.981 1.288-10.864 1.288-3.21 0-6.477-.224-9.8-.672a276.425 276.425 0 0 1-9.576-1.456 172.145 172.145 0 0 0-9.072 8.064 183.675 183.675 0 0 0-8.512 8.624c-2.613 2.837-4.723 5.45-6.328 7.84-1.605 2.39-2.408 4.33-2.408 5.824 0 2.912 2.352 4.368 7.056 4.368 3.51 0 7.616-.859 12.32-2.576.448-.15.915-.317 1.4-.504.485-.187.99-.392 1.512-.616 3.435-1.493 6.832-3.379 10.192-5.656 3.36-2.277 6.421-4.573 9.184-6.888.373-.373.747-.69 1.12-.952.373-.261.71-.504 1.008-.728.373-.299.728-.579 1.064-.84.336-.261.728-.579 1.176-.952.448-.15.747-.224.896-.224.523 0 .784.261.784.784s-.187.97-.56 1.344c-.448.597-1.53 1.699-3.248 3.304-1.717 1.605-3.845 3.379-6.384 5.32a93.25 93.25 0 0 1-8.232 5.6c-2.95 1.792-5.917 3.21-8.904 4.256-1.493.523-3.696 1.139-6.608 1.848-2.912.71-5.787 1.064-8.624 1.064-2.539 0-4.835-.504-6.888-1.512s-3.08-3.005-3.08-5.992c0-2.016.765-4.312 2.296-6.888 1.53-2.576 3.547-5.32 6.048-8.232a145.903 145.903 0 0 1 8.176-8.736 243.03 243.03 0 0 1 8.68-8.176 63.197 63.197 0 0 1-2.072-.448 137 137 0 0 1-1.848-.448c-3.36-.821-7.373-1.81-12.04-2.968a317.107 317.107 0 0 0-14.952-3.304 229.136 229.136 0 0 0-16.24-2.856 126.42 126.42 0 0 0-5.016-.601l-.696.545a166.359 166.359 0 0 1-12.152 8.568 251.718 251.718 0 0 1-11.872 7.168c-3.77 2.128-7.112 3.864-10.024 5.208a214.043 214.043 0 0 0-4.144 8.288c-1.419 2.987-2.539 5.787-3.36 8.4 1.493-1.493 3.304-3.173 5.432-5.04a235.042 235.042 0 0 1 6.776-5.712c.15-.747.299-1.475.448-2.184.15-.71.373-1.363.672-1.96.896-2.539 2.053-3.808 3.472-3.808.597 0 1.12.224 1.568.672.448.448.821.97 1.12 1.568 3.21-2.39 6.384-4.573 9.52-6.552 3.136-1.979 6.03-3.565 8.68-4.76 2.65-1.195 4.797-1.792 6.44-1.792 2.39 0 3.584.97 3.584 2.912 0 .97-.41 1.867-1.232 2.688-.821.821-1.979 1.344-3.472 1.568-4.032.597-8.083 1.81-12.152 3.64a75.76 75.76 0 0 0-11.816 6.664c-.896 2.315-1.344 4.816-1.344 7.504 0 3.21.784 6.03 2.352 8.456 1.568 2.427 4.181 3.64 7.84 3.64 2.464 0 5.115-.504 7.952-1.512 2.837-1.008 5.693-2.296 8.568-3.864a88.567 88.567 0 0 0 8.176-5.04c2.576-1.792 4.835-3.472 6.776-5.04.373-.373.765-.69 1.176-.952.41-.261.765-.541 1.064-.84.523-.373 1.27-.97 2.24-1.792.224-.075.485-.112.784-.112.597 0 .896.299.896.896 0 .299-.187.71-.56 1.232-.124.145-.292.325-.503.54l-.274.273a75.646 75.646 0 0 1-2.247 2.099c-1.568 1.419-3.49 3.005-5.768 4.76a119.93 119.93 0 0 1-7.336 5.208 69.922 69.922 0 0 1-7.84 4.48c-1.568.747-3.621 1.512-6.16 2.296a26.05 26.05 0 0 1-7.728 1.176c-3.285 0-6.067-.877-8.344-2.632-2.277-1.755-3.976-3.995-5.096-6.72a23.665 23.665 0 0 1-1.792-8.456 114.46 114.46 0 0 0-6.888 6.328 75.34 75.34 0 0 0-5.768 6.44l.224.784c.15.224.224.448.224.672v.672c0 .672-.187 1.232-.56 1.68a3.41 3.41 0 0 1-1.456 1.008c-.448.15-.859.224-1.232.224-.523 0-1.064-.15-1.624-.448-.56-.299-.952-.71-1.176-1.232-.448-1.045-.672-2.203-.672-3.472 0-2.763.747-5.843 2.24-9.24a143.063 143.063 0 0 1 4.816-9.912c-.896 0-1.344-.299-1.344-.896 0-.523.336-1.045 1.008-1.568 1.568-.97 2.501-1.755 2.8-2.352 1.344-2.688 3.099-5.805 5.264-9.352 1.862-3.05 3.987-6.225 6.374-9.523-.715.193-1.421.399-2.118.619-5.675 1.792-10.005 4.965-12.992 9.52a7.31 7.31 0 0 1-.672.784c-.224.224-.448.373-.672.448-.075 0-.13.019-.168.056-.037.037-.093.056-.168.056-.448 0-.747-.261-.896-.784-.075-.15-.112-.373-.112-.672 0-.97.261-1.755.784-2.352 2.39-3.51 5.395-6.272 9.016-8.288 3.493-1.944 7.368-3.35 11.624-4.218 2.15-2.76 4.399-5.46 6.744-8.102 3.248-3.659 6.627-6.981 10.136-9.968 3.51-2.987 7.019-5.376 10.528-7.168 3.51-1.792 6.87-2.688 10.08-2.688zM386.288 31.48a71.27 71.27 0 0 0-9.336.59 204.937 204.937 0 0 0-6.344 8.258c-2.39 3.285-4.256 6.235-5.6 8.848 5.6-3.136 11.35-6.533 17.248-10.192a135.97 135.97 0 0 0 10.625-7.304c-2.224-.134-4.421-.2-6.593-.2zM412.272 4.6c-1.419 0-3.267.523-5.544 1.568-2.277 1.045-4.704 2.408-7.28 4.088a81.786 81.786 0 0 0-7.392 5.432c-2.352 1.941-4.312 3.77-5.88 5.488a298.453 298.453 0 0 0-5.565 6.46c2.225-.2 4.491-.3 6.797-.3 3.422 0 6.863.158 10.322.473.389-.322.774-.648 1.158-.977 5.19-4.443 9.427-9.427 12.712-14.952.373-.672.765-1.4 1.176-2.184.41-.784.765-1.55 1.064-2.296.075-.299.13-.56.168-.784a3.52 3.52 0 0 0 .056-.56c0-.97-.597-1.456-1.792-1.456z" fill="#EEE" fill-rule="nonzero"/>
</svg>
