<svg width="504" height="100" viewBox="0 0 504 100" xmlns="http://www.w3.org/2000/svg">
    <g fill="#EEE" fill-rule="nonzero">
        <path d="M26.768 15.344c-.896 0-1.53-.243-1.904-.728-.373-.485-.56-1.101-.56-1.848 0-.821.15-1.53.448-2.128.299-.597 1.101-1.12 2.408-1.568a23.684 23.684 0 0 1 4.256-1.008c1.53-.224 2.707-.336 3.528-.336.896 0 1.344.187 1.344.56 0 .299-.187.56-.56.784-.15.075-.355.187-.616.336-.261.15-.579.299-.952.448-.523.224-1.101.504-1.736.84-.635.336-1.027.728-1.176 1.176a6.851 6.851 0 0 1-1.904 2.464c-.821.672-1.68 1.008-2.576 1.008zM8.176 53.2c-2.09 0-3.976-.41-5.656-1.232C.84 51.147 0 49.578 0 47.264c0-2.24.523-4.405 1.568-6.496a28.948 28.948 0 0 1 3.976-5.936c1.605-1.867 3.155-3.51 4.648-4.928 1.27-1.12 2.277-2.016 3.024-2.688-.075-.075-.112-.224-.112-.448 0-.597.261-1.195.784-1.792.821-1.195 2.165-2.203 4.032-3.024.448-.15.896-.224 1.344-.224.97 0 1.941.205 2.912.616.97.41 1.456 1.064 1.456 1.96 0 .523-.187 1.008-.56 1.456-.373.448-.71.784-1.008 1.008-.597.448-1.512 1.213-2.744 2.296a106.949 106.949 0 0 0-3.976 3.696 431.047 431.047 0 0 0-4.088 4.032C9.949 38.099 8.96 39.2 8.288 40.096c-2.613 3.36-3.92 5.899-3.92 7.616 0 .747.317 1.363.952 1.848.635.485 1.773.728 3.416.728 2.613 0 5.208-.43 7.784-1.288 2.576-.859 4.947-1.848 7.112-2.968a40.708 40.708 0 0 0 5.096-3.024 140.566 140.566 0 0 0 4.76-3.472 373.81 373.81 0 0 0 4.76-3.92 560.07 560.07 0 0 1 4.872-4.032c.224-.075.485-.112.784-.112.597 0 .896.261.896.784 0 .448-.187.859-.56 1.232-.448.597-1.381 1.568-2.8 2.912-1.419 1.344-3.155 2.875-5.208 4.592-2.053 1.717-4.35 3.397-6.888 5.04a57.134 57.134 0 0 1-7.84 4.256c-1.419.597-3.397 1.232-5.936 1.904-2.539.672-5.003 1.008-7.392 1.008z"/>
        <path d="M32.032 55.776c-1.27 0-1.904-.597-1.904-1.792 0-.747.205-1.568.616-2.464.41-.896.915-1.867 1.512-2.912a91.817 91.817 0 0 1 3.304-5.376c1.232-1.867 2.296-3.397 3.192-4.592.747-.97 1.792-2.352 3.136-4.144a63.253 63.253 0 0 0 3.808-5.712c1.643-2.688 2.464-4.928 2.464-6.72 0-.97-.299-1.717-.896-2.24a8.935 8.935 0 0 1-.896-1.064c-.299-.41-.448-.765-.448-1.064 0-.747.299-1.12.896-1.12s1.157.224 1.68.672c.523.299 1.101.71 1.736 1.232a11.29 11.29 0 0 1 1.736 1.792c.224.299.467.579.728.84.261.261.467.579.616.952.224.373.41.765.56 1.176.15.41.224.877.224 1.4 0 1.045-.448 2.315-1.344 3.808a36.342 36.342 0 0 1-4.76 6.44 361.31 361.31 0 0 0-5.32 5.88 7.83 7.83 0 0 1-.728.84 7.83 7.83 0 0 0-.728.84 293.041 293.041 0 0 1 9.464-8.344c3.397-2.875 6.365-5.133 8.904-6.776.821-.523 1.904-1.027 3.248-1.512 1.344-.485 2.613-.728 3.808-.728 1.12 0 2.11.317 2.968.952.859.635 1.288 1.81 1.288 3.528 0 1.493-.299 3.192-.896 5.096a92.34 92.34 0 0 1-1.792 5.208 25.447 25.447 0 0 0-1.232 3.416c-.299 1.083-.448 2.035-.448 2.856 0 2.613 1.419 3.92 4.256 3.92.747 0 1.624-.093 2.632-.28 1.008-.187 2.11-.504 3.304-.952 3.808-1.419 7.672-3.397 11.592-5.936 3.92-2.539 7.448-5.115 10.584-7.728.373-.299.747-.579 1.12-.84.373-.261.71-.504 1.008-.728.373-.299.728-.579 1.064-.84.336-.261.728-.579 1.176-.952.448-.15.747-.224.896-.224.448 0 .672.261.672.784s-.15.97-.448 1.344c-.448.597-1.53 1.68-3.248 3.248-1.717 1.568-3.827 3.323-6.328 5.264a87.009 87.009 0 0 1-8.176 5.6c-2.95 1.792-5.917 3.21-8.904 4.256a26.387 26.387 0 0 1-8.4 1.344c-2.24 0-4.256-.523-6.048-1.568-1.792-1.045-2.688-2.837-2.688-5.376 0-1.493.373-3.248 1.12-5.264a90.36 90.36 0 0 1 1.736-4.144c.635-1.419 1.027-2.837 1.176-4.256.075-.299.112-.579.112-.84v-.616c0-.896-.13-1.456-.392-1.68-.261-.224-.541-.336-.84-.336-.747 0-1.661.28-2.744.84a31.154 31.154 0 0 0-2.968 1.736c-.821.523-2.11 1.55-3.864 3.08a254.996 254.996 0 0 0-5.712 5.152 2043.433 2043.433 0 0 1-5.88 5.432A73.687 73.687 0 0 0 38.92 49a658.755 658.755 0 0 0-2.968 3.192 99.308 99.308 0 0 1-2.464 2.576c-.672.672-1.157 1.008-1.456 1.008z"/>
        <path d="M97.44 56.784a6.901 6.901 0 0 1-2.52-.952c-.784-.485-1.176-1.213-1.176-2.184 0-1.643.896-3.379 2.688-5.208 1.792-1.83 4.032-3.603 6.72-5.32 2.688-1.717 5.339-3.136 7.952-4.256-1.643-1.717-2.95-3.379-3.92-4.984-.97-1.605-1.456-3.23-1.456-4.872 0-2.24 1.045-4.387 3.136-6.44 2.09-2.053 5.413-4.088 9.968-6.104 2.165-.97 4.125-1.643 5.88-2.016s3.304-.56 4.648-.56c1.717 0 3.136.224 4.256.672 1.12.448 1.941.97 2.464 1.568 1.195 1.419 1.792 2.837 1.792 4.256 0 1.792-.784 3.323-2.352 4.592-1.568 1.27-3.024 2.315-4.368 3.136a2.827 2.827 0 0 0-.672.336 3.67 3.67 0 0 0-.56.448c-.448.299-.71.485-.784.56-.672.597-1.344.747-2.016.448-.373-.224-.56-.523-.56-.896s.187-.672.56-.896c.821-.373 1.773-1.101 2.856-2.184a25.63 25.63 0 0 0 2.912-3.472c.859-1.232 1.288-2.296 1.288-3.192 0-.448-.112-.821-.336-1.12-.448-.448-1.344-.672-2.688-.672-1.643 0-3.565.373-5.768 1.12A32.935 32.935 0 0 0 119 21.56c-2.053 1.232-3.752 2.576-5.096 4.032-1.344 1.456-2.016 2.893-2.016 4.312 0 1.27.43 2.483 1.288 3.64a29.684 29.684 0 0 0 2.856 3.304c2.09-.896 4.573-1.661 7.448-2.296a93.344 93.344 0 0 1 8.96-1.512c3.099-.373 6.104-.635 9.016-.784 2.912-.15 5.413-.224 7.504-.224h3.248c.896 0 1.605.075 2.128.224.672.15 1.008.448 1.008.896 0 .299-.13.56-.392.784-.261.224-.541.336-.84.336a12.29 12.29 0 0 1-1.624-.112 15.023 15.023 0 0 0-1.96-.112c-2.315 0-5.077.168-8.288.504-3.21.336-6.44.747-9.688 1.232s-6.179 1.027-8.792 1.624c-2.613.597-4.48 1.195-5.6 1.792 1.27 1.717 1.904 3.547 1.904 5.488 0 3.435-1.68 6.123-5.04 8.064-2.24 1.419-4.76 2.483-7.56 3.192-2.8.71-5.283 1.064-7.448 1.064-.523 0-.99-.019-1.4-.056a11.14 11.14 0 0 1-1.176-.168zm2.464-3.248c.821 0 2.333-.317 4.536-.952a23.14 23.14 0 0 0 6.104-2.744c2.539-1.568 3.808-3.36 3.808-5.376 0-1.27-.597-2.613-1.792-4.032-1.419.523-3.155 1.512-5.208 2.968-2.053 1.456-3.864 2.968-5.432 4.536-1.717 1.717-2.8 3.136-3.248 4.256 0 .075-.019.15-.056.224a.78.78 0 0 0-.056.336c0 .448.448.71 1.344.784z"/>
        <path d="M152.096 54.88c-2.539 0-4.835-.504-6.888-1.512s-3.08-3.005-3.08-5.992c0-2.016.765-4.312 2.296-6.888 1.53-2.576 3.547-5.32 6.048-8.232a145.903 145.903 0 0 1 8.176-8.736 243.03 243.03 0 0 1 8.68-8.176 63.197 63.197 0 0 1-2.072-.448 137 137 0 0 1-1.848-.448c-3.36-.821-7.373-1.81-12.04-2.968a317.108 317.108 0 0 0-14.952-3.304 229.136 229.136 0 0 0-16.24-2.856c-5.6-.784-11.05-1.176-16.352-1.176-6.944 0-13.253.896-18.928 2.688-5.675 1.792-10.005 4.965-12.992 9.52a7.31 7.31 0 0 1-.672.784c-.224.224-.448.373-.672.448-.075 0-.13.019-.168.056-.037.037-.093.056-.168.056-.448 0-.747-.261-.896-.784-.075-.15-.112-.373-.112-.672 0-.97.261-1.755.784-2.352 2.39-3.51 5.395-6.272 9.016-8.288 3.621-2.016 7.653-3.453 12.096-4.312C95.555.429 100.165 0 104.944 0c4.853 0 9.744.317 14.672.952A176.28 176.28 0 0 1 133.84 3.36c4.555.896 8.755 1.848 12.6 2.856a470.295 470.295 0 0 1 9.688 2.632c1.792.448 3.957.97 6.496 1.568 2.539.597 5.301 1.157 8.288 1.68l6.608-5.712c-.299-.821.019-1.83.952-3.024.933-1.195 2.259-2.165 3.976-2.912.15-.075.485-.112 1.008-.112.747 0 1.605.112 2.576.336.97.224 1.83.56 2.576 1.008.747.448 1.12 1.008 1.12 1.68 0 .299-.261.71-.784 1.232a13.269 13.269 0 0 1-1.736 1.456 72.45 72.45 0 0 1-1.288.896c-.821.448-1.96 1.213-3.416 2.296a398.779 398.779 0 0 0-5.096 3.864c5.376.821 10.49 1.232 15.344 1.232 3.733 0 7.056-.317 9.968-.952s5.227-1.736 6.944-3.304c1.717-1.568 2.576-3.659 2.576-6.272v-.84c0-.261-.037-.541-.112-.84v-.112c0-.747.41-1.12 1.232-1.12.597 0 1.008.336 1.232 1.008a16.514 16.514 0 0 1 .224 2.688c0 3.584-1.045 6.403-3.136 8.456-2.09 2.053-4.816 3.51-8.176 4.368-3.36.859-6.981 1.288-10.864 1.288-3.21 0-6.477-.224-9.8-.672a276.425 276.425 0 0 1-9.576-1.456 172.145 172.145 0 0 0-9.072 8.064 183.675 183.675 0 0 0-8.512 8.624c-2.613 2.837-4.723 5.45-6.328 7.84-1.605 2.39-2.408 4.33-2.408 5.824 0 2.912 2.352 4.368 7.056 4.368 3.51 0 7.616-.859 12.32-2.576.448-.15.915-.317 1.4-.504.485-.187.99-.392 1.512-.616 3.435-1.493 6.832-3.379 10.192-5.656 3.36-2.277 6.421-4.573 9.184-6.888.373-.373.747-.69 1.12-.952.373-.261.71-.504 1.008-.728.373-.299.728-.579 1.064-.84.336-.261.728-.579 1.176-.952.448-.15.747-.224.896-.224.523 0 .784.261.784.784s-.187.97-.56 1.344c-.448.597-1.53 1.699-3.248 3.304-1.717 1.605-3.845 3.379-6.384 5.32a93.25 93.25 0 0 1-8.232 5.6c-2.95 1.792-5.917 3.21-8.904 4.256-1.493.523-3.696 1.139-6.608 1.848-2.912.71-5.787 1.064-8.624 1.064z"/>
        <path d="M221.648 53.536c-2.24 0-4.275-.579-6.104-1.736-1.83-1.157-2.744-3.267-2.744-6.328 0-1.12.15-2.296.448-3.528a58.061 58.061 0 0 1 1.008-3.64c-1.27 1.27-2.837 2.744-4.704 4.424a68.457 68.457 0 0 1-6.104 4.872c-2.203 1.568-4.405 2.856-6.608 3.864-2.203 1.008-4.275 1.512-6.216 1.512-2.39 0-4.33-.859-5.824-2.576-1.045-1.12-1.568-2.576-1.568-4.368 0-2.165.765-4.573 2.296-7.224 1.53-2.65 3.621-5.283 6.272-7.896 2.65-2.613 5.675-5.003 9.072-7.168 3.397-2.165 6.925-3.883 10.584-5.152 3.957-1.419 7.467-2.128 10.528-2.128 5.376 0 8.064 2.315 8.064 6.944 0 .299-.019.653-.056 1.064-.037.41-.093.84-.168 1.288-.373 1.493-.933 2.501-1.68 3.024-.075.075-.261.168-.56.28-.299.112-.56.019-.784-.28-.224-.373-.261-.896-.112-1.568.224-.821.336-1.53.336-2.128 0-2.09-1.157-3.136-3.472-3.136-1.27 0-2.875.261-4.816.784-1.941.523-4.013 1.213-6.216 2.072a81.212 81.212 0 0 0-6.272 2.744c-1.979.97-3.64 1.941-4.984 2.912-3.435 2.464-6.44 5.17-9.016 8.12-2.576 2.95-4.05 5.507-4.424 7.672a2.114 2.114 0 0 0-.112.672v.56c0 1.12.243 1.867.728 2.24.485.373 1.064.56 1.736.56 1.27 0 2.725-.392 4.368-1.176a37.426 37.426 0 0 0 4.648-2.632c1.456-.97 2.483-1.717 3.08-2.24 2.315-2.016 4.947-4.2 7.896-6.552a238.592 238.592 0 0 0 7.896-6.552c.448-.224 1.008-.336 1.68-.336 1.195 0 2.128.261 2.8.784.299.224.448.672.448 1.344 0 .896-.336 2.016-1.008 3.36a162.133 162.133 0 0 0-3.024 6.776c-.821 1.979-1.232 3.603-1.232 4.872 0 1.867 1.045 2.8 3.136 2.8 1.643 0 4.293-.635 7.952-1.904 3.808-1.419 7.672-3.397 11.592-5.936 3.92-2.539 7.448-5.115 10.584-7.728a5.889 5.889 0 0 1 1.12-.896c.373-.224.71-.485 1.008-.784a7.093 7.093 0 0 0 1.064-.784c.336-.299.728-.597 1.176-.896.448-.15.747-.224.896-.224.523 0 .784.261.784.784 0 .448-.187.859-.56 1.232-.448.597-1.53 1.68-3.248 3.248-1.717 1.568-3.827 3.323-6.328 5.264a87.009 87.009 0 0 1-8.176 5.6c-2.95 1.792-5.917 3.21-8.904 4.256-1.12.373-2.408.728-3.864 1.064a19.131 19.131 0 0 1-4.312.504z"/>
        <path d="M225.12 99.792c-1.941 0-3.939-.243-5.992-.728s-3.77-1.344-5.152-2.576c-1.381-1.232-2.072-2.93-2.072-5.096 0-2.688 1.083-5.563 3.248-8.624 2.165-3.061 5.413-5.899 9.744-8.512 4.181-2.539 8.325-4.723 12.432-6.552a153.262 153.262 0 0 1 12.32-4.872 273.937 273.937 0 0 1 12.208-3.976 559.556 559.556 0 0 0 13.664-4.312 45.735 45.735 0 0 0 3.192-8.288c.784-2.837 1.176-5.301 1.176-7.392 0-1.344-.187-2.464-.56-3.36-.224.15-.373.299-.448.448-.075.15-.187.299-.336.448-.523.523-1.157 1.176-1.904 1.96-.747.784-1.568 1.624-2.464 2.52-1.493 1.493-3.379 3.248-5.656 5.264-2.277 2.016-4.63 3.752-7.056 5.208-2.427 1.456-4.76 2.184-7 2.184a6.681 6.681 0 0 1-3.024-.728c-.97-.485-1.83-1.25-2.576-2.296a7.208 7.208 0 0 1-1.344-4.256c0-2.24.69-4.63 2.072-7.168 1.381-2.539 3.155-5.021 5.32-7.448 2.165-2.427 4.461-4.536 6.888-6.328 2.427-1.792 4.685-3.061 6.776-3.808a22.89 22.89 0 0 1 2.296-.56c.784-.15 1.661-.224 2.632-.224 2.09 0 4.163.467 6.216 1.4 2.053.933 3.23 2.632 3.528 5.096v.336c0 1.12-.336 1.867-1.008 2.24-.15.15-.373.224-.672.224-.747 0-1.12-.485-1.12-1.456 0-.523-.224-1.307-.672-2.352-.448-1.045-1.53-1.568-3.248-1.568-2.24 0-4.723.784-7.448 2.352-2.725 1.568-5.357 3.528-7.896 5.88-2.539 2.352-4.685 4.797-6.44 7.336-1.755 2.539-2.781 4.779-3.08 6.72a3.29 3.29 0 0 0-.112.784v.56c0 1.12.205 1.848.616 2.184.41.336.84.504 1.288.504 1.12 0 2.445-.448 3.976-1.344a39.05 39.05 0 0 0 4.368-2.968c1.381-1.083 2.408-1.885 3.08-2.408a517.483 517.483 0 0 0 5.992-5.152 921.841 921.841 0 0 1 6.216-5.376c-.075-.15-.112-.373-.112-.672 0-.373.075-.71.224-1.008.373-.597.896-1.083 1.568-1.456s1.605-.56 2.8-.56c1.643 0 2.837.635 3.584 1.904.747 1.27 1.12 2.95 1.12 5.04 0 1.867-.299 4.088-.896 6.664-.597 2.576-1.53 5.395-2.8 8.456 7.093-2.613 13.403-5.413 18.928-8.4s9.893-5.973 13.104-8.96c.448-.448 1.139-1.083 2.072-1.904a56.09 56.09 0 0 1 2.856-2.352c.523-.373.99-.728 1.4-1.064.41-.336.765-.616 1.064-.84.448-.299.747-.448.896-.448.672-.299 1.008-.112 1.008.56 0 .448-.299 1.139-.896 2.072s-1.792 2.296-3.584 4.088c-5.152 5.077-11.07 9.52-17.752 13.328a77.928 77.928 0 0 1-21.224 8.288c-2.688 5.45-6.048 10.752-10.08 15.904a89.688 89.688 0 0 1-13.496 13.888c-4.965 4.107-10.155 7.373-15.568 9.8-5.413 2.427-10.808 3.677-16.184 3.752zm-1.456-2.576c4.928 0 9.8-1.139 14.616-3.416 4.816-2.277 9.39-5.32 13.72-9.128a99.311 99.311 0 0 0 11.928-12.488c3.621-4.517 6.701-9.016 9.24-13.496-9.408 2.763-17.659 5.507-24.752 8.232-7.093 2.725-13.739 6.141-19.936 10.248-4.555 2.987-7.803 5.75-9.744 8.288-1.941 2.539-2.912 4.704-2.912 6.496 0 1.419.672 2.65 2.016 3.696 1.344 1.045 3.285 1.568 5.824 1.568z"/>
        <path d="M327.6 71.904c-3.435 0-5.936-.859-7.504-2.576-1.568-1.717-2.352-3.92-2.352-6.608 0-2.912.728-6.197 2.184-9.856 1.456-3.659 3.397-7.373 5.824-11.144a86.328 86.328 0 0 1 7.896-10.472 5.698 5.698 0 0 1-1.12.112h-1.12c-2.539 0-4.667-.597-6.384-1.792-.747 1.12-1.792 2.352-3.136 3.696a55.262 55.262 0 0 1-3.92 3.584A128.666 128.666 0 0 1 308 44.352c-3.51 2.39-6.981 4.368-10.416 5.936-3.435 1.568-6.645 2.464-9.632 2.688-.224 0-.541-.037-.952-.112-.41-.075-.728-.224-.952-.448-.299-.224-.373-.467-.224-.728.15-.261.299-.43.448-.504.224-.15.485-.28.784-.392.299-.112.71-.205 1.232-.28 2.539-.523 5.339-1.587 8.4-3.192 3.061-1.605 6.253-3.547 9.576-5.824a131.107 131.107 0 0 0 9.576-7.224 57.717 57.717 0 0 0 3.92-3.304 114.887 114.887 0 0 0 3.584-3.416c-.747-1.195-1.12-2.464-1.12-3.808 0-1.792.485-3.584 1.456-5.376a22.405 22.405 0 0 1 3.696-4.984c1.493-1.53 3.099-2.763 4.816-3.696 1.717-.933 3.323-1.4 4.816-1.4.821 0 1.4.187 1.736.56.336.373.504.784.504 1.232 0 .97-.336 1.717-1.008 2.24-.523.448-1.363 1.27-2.52 2.464a228.078 228.078 0 0 0-3.752 3.976 69.626 69.626 0 0 0-3.64 4.256c-1.083 1.381-1.81 2.52-2.184 3.416.224.373.579.71 1.064 1.008.485.299 1.325.448 2.52.448 1.792 0 3.547-.373 5.264-1.12a27.475 27.475 0 0 0 4.816-2.688 3.21 3.21 0 0 1 1.456-.336c.821 0 1.624.168 2.408.504.784.336 1.325.69 1.624 1.064.075.075.112.224.112.448 0 .747-.41 1.643-1.232 2.688a51.048 51.048 0 0 1-1.512 1.68 70.475 70.475 0 0 0-1.624 1.792c-2.09 2.315-4.237 4.91-6.44 7.784a98.266 98.266 0 0 0-5.992 8.736c-1.792 2.95-3.248 5.75-4.368 8.4-1.12 2.65-1.68 4.947-1.68 6.888 0 1.419.392 2.557 1.176 3.416.784.859 2.147 1.288 4.088 1.288.373 0 .803-.019 1.288-.056.485-.037.99-.093 1.512-.168 1.867-.299 3.995-.97 6.384-2.016a71.952 71.952 0 0 0 7.168-3.64c2.39-1.381 4.443-2.632 6.16-3.752.15-.15.41-.224.784-.224.523 0 .821.224.896.672v.224c0 .373-.224.784-.672 1.232-.15.15-.41.392-.784.728-.373.336-.859.765-1.456 1.288a45.062 45.062 0 0 1-7.952 5.544 28.327 28.327 0 0 1-9.184 3.192c-.747.075-1.493.168-2.24.28-.747.112-1.456.168-2.128.168zM388.08 53.536c-2.24 0-4.275-.579-6.104-1.736-1.83-1.157-2.744-3.267-2.744-6.328 0-1.12.15-2.296.448-3.528a58.061 58.061 0 0 1 1.008-3.64c-1.27 1.27-2.837 2.744-4.704 4.424a68.457 68.457 0 0 1-6.104 4.872c-2.203 1.568-4.405 2.856-6.608 3.864-2.203 1.008-4.275 1.512-6.216 1.512-2.39 0-4.33-.859-5.824-2.576-1.045-1.12-1.568-2.576-1.568-4.368 0-2.165.765-4.573 2.296-7.224 1.53-2.65 3.621-5.283 6.272-7.896 2.65-2.613 5.675-5.003 9.072-7.168 3.397-2.165 6.925-3.883 10.584-5.152 3.957-1.419 7.467-2.128 10.528-2.128 5.376 0 8.064 2.315 8.064 6.944 0 .299-.019.653-.056 1.064-.037.41-.093.84-.168 1.288-.373 1.493-.933 2.501-1.68 3.024-.075.075-.261.168-.56.28-.299.112-.56.019-.784-.28-.224-.373-.261-.896-.112-1.568.224-.821.336-1.53.336-2.128 0-2.09-1.157-3.136-3.472-3.136-1.27 0-2.875.261-4.816.784-1.941.523-4.013 1.213-6.216 2.072a81.212 81.212 0 0 0-6.272 2.744c-1.979.97-3.64 1.941-4.984 2.912-3.435 2.464-6.44 5.17-9.016 8.12-2.576 2.95-4.05 5.507-4.424 7.672a2.114 2.114 0 0 0-.112.672v.56c0 1.12.243 1.867.728 2.24.485.373 1.064.56 1.736.56 1.27 0 2.725-.392 4.368-1.176a37.426 37.426 0 0 0 4.648-2.632c1.456-.97 2.483-1.717 3.08-2.24 2.315-2.016 4.947-4.2 7.896-6.552a238.592 238.592 0 0 0 7.896-6.552c.448-.224 1.008-.336 1.68-.336 1.195 0 2.128.261 2.8.784.299.224.448.672.448 1.344 0 .896-.336 2.016-1.008 3.36a162.133 162.133 0 0 0-3.024 6.776c-.821 1.979-1.232 3.603-1.232 4.872 0 1.867 1.045 2.8 3.136 2.8 1.643 0 4.293-.635 7.952-1.904 3.808-1.419 7.672-3.397 11.592-5.936 3.92-2.539 7.448-5.115 10.584-7.728a5.889 5.889 0 0 1 1.12-.896c.373-.224.71-.485 1.008-.784a7.093 7.093 0 0 0 1.064-.784c.336-.299.728-.597 1.176-.896.448-.15.747-.224.896-.224.523 0 .784.261.784.784 0 .448-.187.859-.56 1.232-.448.597-1.53 1.68-3.248 3.248-1.717 1.568-3.827 3.323-6.328 5.264a87.009 87.009 0 0 1-8.176 5.6c-2.95 1.792-5.917 3.21-8.904 4.256-1.12.373-2.408.728-3.864 1.064a19.131 19.131 0 0 1-4.312.504z"/>
        <path d="M410.144 55.776c-1.27 0-1.904-.597-1.904-1.792 0-.747.205-1.568.616-2.464a36.98 36.98 0 0 1 1.512-2.912c.97-1.717 2.09-3.51 3.36-5.376 1.27-1.867 2.315-3.397 3.136-4.592.747-.97 1.81-2.352 3.192-4.144a45.663 45.663 0 0 0 3.752-5.712c.821-1.27 1.456-2.483 1.904-3.64.448-1.157.672-2.184.672-3.08 0-.97-.336-1.717-1.008-2.24-.896-.672-1.344-1.456-1.344-2.352 0-.597.336-.896 1.008-.896.448 0 1.008.224 1.68.672.523.299 1.101.71 1.736 1.232a11.29 11.29 0 0 1 1.736 1.792c.224.299.448.579.672.84.224.261.448.579.672.952.448.747.672 1.605.672 2.576 0 1.195-.41 2.464-1.232 3.808a36.342 36.342 0 0 1-4.76 6.44c-1.83 1.979-3.64 3.939-5.432 5.88a208.478 208.478 0 0 1 7.784-6.944c2.725-2.315 5.264-4.275 7.616-5.88 2.352-1.605 4.237-2.445 5.656-2.52.299-.075.579-.112.84-.112h.728c2.165 0 3.659.597 4.48 1.792.373.597.597 1.25.672 1.96.075.71.112 1.4.112 2.072 0 1.045-.243 2.333-.728 3.864a65.578 65.578 0 0 1-2.52 6.664c-.299.672-.56 1.307-.784 1.904.373-.448.765-.933 1.176-1.456.41-.523.803-1.045 1.176-1.568.97-1.195 1.96-2.39 2.968-3.584 1.008-1.195 1.96-2.165 2.856-2.912 1.568-1.344 2.837-2.016 3.808-2.016.299 0 .597.075.896.224.373.299.653.69.84 1.176.187.485.317.952.392 1.4.15.672.317 1.53.504 2.576a32.96 32.96 0 0 0 .84 3.472c.373 1.195.877 2.39 1.512 3.584.635 1.195 1.437 2.203 2.408 3.024.821.821 2.165 1.232 4.032 1.232 1.493 0 3.061-.224 4.704-.672 1.643-.448 3.061-.97 4.256-1.568a61.886 61.886 0 0 0 8.96-5.376 205.036 205.036 0 0 0 8.96-6.832l6.944-5.712c.597-.448 1.083-.672 1.456-.672s.597.075.672.224v.224c0 .224-.037.485-.112.784-.075.299-.261.635-.56 1.008-.523.747-1.307 1.717-2.352 2.912-1.045 1.195-2.352 2.464-3.92 3.808-1.717 1.419-3.77 3.024-6.16 4.816a103.15 103.15 0 0 1-7.56 5.152 56.374 56.374 0 0 1-8.008 4.144c-1.419.523-2.8.97-4.144 1.344-1.344.373-2.65.56-3.92.56-2.912 0-5.208-.653-6.888-1.96-1.68-1.307-3.005-2.856-3.976-4.648a18.748 18.748 0 0 1-1.176-2.632 34.987 34.987 0 0 1-.84-2.632 37.44 37.44 0 0 1-.392-1.736 12.642 12.642 0 0 0-.392-1.512c-.821.747-1.643 1.643-2.464 2.688l-2.464 3.136a696.42 696.42 0 0 0-2.464 3.304 530.328 530.328 0 0 1-1.792 2.408c-.821 1.045-1.83 1.568-3.024 1.568-.821 0-1.512-.336-2.072-1.008-.56-.672-.728-1.643-.504-2.912.075-.373.187-.821.336-1.344.15-.523.299-1.083.448-1.68.224-.597.448-1.213.672-1.848.224-.635.448-1.288.672-1.96.523-1.344.99-2.67 1.4-3.976.41-1.307.653-2.408.728-3.304a3.29 3.29 0 0 0 .112-.784v-.672c0-.821-.13-1.363-.392-1.624a1.296 1.296 0 0 0-.952-.392c-.747 0-1.68.28-2.8.84a28.15 28.15 0 0 0-3.024 1.736c-.821.523-2.11 1.55-3.864 3.08a364.274 364.274 0 0 0-5.768 5.152c-2.09 1.904-4.07 3.715-5.936 5.432A73.687 73.687 0 0 0 417.032 49a658.74 658.74 0 0 0-2.968 3.192 99.308 99.308 0 0 1-2.464 2.576c-.672.672-1.157 1.008-1.456 1.008z"/>
    </g>
</svg>
