<svg width="886" height="140" viewBox="0 0 886 140" xmlns="http://www.w3.org/2000/svg">
    <g fill="#FFF" fill-rule="nonzero" opacity=".099">
        <path d="M57.652 98.712c-5.227 0-10.528-.541-15.904-1.624a76.168 76.168 0 0 1-15.4-4.816c-4.89-2.128-9.277-4.76-13.16-7.896-3.883-3.136-6.944-6.776-9.184-10.92-2.24-4.144-3.36-8.792-3.36-13.944 0-3.435.635-6.813 1.904-10.136a27.913 27.913 0 0 1 5.544-8.96c2.427-2.65 5.413-4.779 8.96-6.384 3.547-1.605 7.635-2.408 12.264-2.408 1.493 0 2.595.15 3.304.448.71.299 1.064.635 1.064 1.008 0 .523-.56.784-1.68.784-6.048 0-10.939 1.083-14.672 3.248-3.733 2.165-6.459 5.021-8.176 8.568-1.717 3.547-2.576 7.41-2.576 11.592 0 4.779 1.064 9.165 3.192 13.16 2.128 3.995 5.003 7.523 8.624 10.584 3.621 3.061 7.728 5.656 12.32 7.784a71.035 71.035 0 0 0 14.392 4.872c5.003 1.12 9.893 1.68 14.672 1.68 5.824 0 11.125-.71 15.904-2.128 4.779-1.419 8.605-3.528 11.48-6.328 2.875-2.8 4.312-6.253 4.312-10.36 0-3.285-.896-6.253-2.688-8.904a45.29 45.29 0 0 0-6.048-7.224 158.64 158.64 0 0 0-2.52-2.464 51.572 51.572 0 0 0-2.632-2.352 156.816 156.816 0 0 1-6.72-6.44c-2.165-2.203-3.957-4.592-5.376-7.168-1.419-2.576-2.128-5.432-2.128-8.568 0-3.733 1.008-6.963 3.024-9.688 2.016-2.725 4.723-4.984 8.12-6.776 3.397-1.792 7.168-3.117 11.312-3.976a61.394 61.394 0 0 1 12.488-1.288c4.779 0 8.25.672 10.416 2.016 2.165 1.344 3.248 3.285 3.248 5.824 0 1.792-.579 3.659-1.736 5.6-1.157 1.941-2.725 3.677-4.704 5.208-1.979 1.53-4.237 2.67-6.776 3.416-.747.224-1.381.336-1.904.336-.523 0-.859-.187-1.008-.56 0-.448.299-.859.896-1.232.15-.15.392-.299.728-.448.336-.15.69-.373 1.064-.672 3.136-1.867 5.227-3.79 6.272-5.768 1.045-1.979 1.568-3.677 1.568-5.096 0-1.717-.821-3.08-2.464-4.088s-4.33-1.512-8.064-1.512c-4.256 0-8.4.672-12.432 2.016-4.032 1.344-7.336 3.36-9.912 6.048-2.576 2.688-3.864 6.048-3.864 10.08 0 1.941.392 3.77 1.176 5.488.784 1.717 1.848 3.397 3.192 5.04a35.94 35.94 0 0 0 4.816 4.984 193.911 193.911 0 0 1 5.04 4.424 138.415 138.415 0 0 1 6.944 6.272c2.24 2.165 4.088 4.517 5.544 7.056 1.456 2.539 2.184 5.339 2.184 8.4 0 3.808-1.064 7.224-3.192 10.248-2.128 3.024-5.077 5.563-8.848 7.616-3.77 2.053-8.12 3.621-13.048 4.704-4.928 1.083-10.192 1.624-15.792 1.624z"/>
        <path d="M40.292 139.816c-3.21 0-6.085-.373-8.624-1.12a31.016 31.016 0 0 1-10.08-5.264c-3.061-2.39-5.301-5.525-6.72-9.408-.075-.299-.13-.56-.168-.784a3.52 3.52 0 0 1-.056-.56c0-1.12.485-1.68 1.456-1.68.448 0 .915.187 1.4.56.485.373.84.97 1.064 1.792 1.27 3.584 3.024 6.403 5.264 8.456s5.19 3.453 8.848 4.2a38.629 38.629 0 0 0 5.824.448c3.51 0 6.888-.504 10.136-1.512 3.248-1.008 6.253-2.296 9.016-3.864 3.733-2.165 7.952-5.45 12.656-9.856 4.704-4.405 9.52-9.445 14.448-15.12 3.21-3.733 6.31-7.579 9.296-11.536a504.412 504.412 0 0 0 8.848-12.096 573.277 573.277 0 0 0 8.4-12.04c2.763-4.07 5.6-8.12 8.512-12.152a3.29 3.29 0 0 1-.784.112h-.672c-1.27 0-1.904-.336-1.904-1.008.075-.747.672-1.624 1.792-2.632s2.483-1.904 4.088-2.688c1.605-.784 3.08-1.176 4.424-1.176.821 0 1.493.15 2.016.448.821-.15 2.053-.336 3.696-.56 1.643-.224 3.51-.336 5.6-.336 2.39 0 4.947.261 7.672.784a16.696 16.696 0 0 1 7.336 3.36c.821.523 1.68 1.456 2.576 2.8.896 1.344 1.381 2.725 1.456 4.144 2.837-.373 5.525-.69 8.064-.952 2.539-.261 4.667-.392 6.384-.392h1.96c.635 0 1.139.075 1.512.224.15.075.392.168.728.28.336.112.616.243.84.392.597.597.56 1.045-.112 1.344-.224.075-.747.112-1.568.112-1.717-.15-4.181-.019-7.392.392-3.21.41-6.795 1.027-10.752 1.848-.523 2.539-1.736 4.816-3.64 6.832-1.904 2.016-4.163 3.733-6.776 5.152a48.096 48.096 0 0 1-8.288 3.528c-2.912.933-5.712 1.624-8.4 2.072-2.688.448-5.003.672-6.944.672-2.165 0-4.2-.41-6.104-1.232-1.904-.821-2.856-2.053-2.856-3.696 0-1.493.821-2.95 2.464-4.368 1.568-1.344 4.181-2.725 7.84-4.144s8.008-2.781 13.048-4.088c5.04-1.307 10.397-2.445 16.072-3.416.15-.299.224-.597.224-.896v-.896c0-2.39-1.288-4.032-3.864-4.928-2.576-.896-5.619-1.344-9.128-1.344-2.39 0-4.685.15-6.888.448-2.203.299-3.864.635-4.984 1.008l-2.016.784c-4.779 5.675-8.699 10.752-11.76 15.232a472.825 472.825 0 0 0-8.512 12.88 673.844 673.844 0 0 1-7.84 12.376c-2.688 4.144-6.048 8.717-10.08 13.72-4.33 5.525-8.773 10.435-13.328 14.728-4.555 4.293-8.923 7.485-13.104 9.576-2.987 1.419-6.384 2.613-10.192 3.584a46.091 46.091 0 0 1-11.424 1.456zm81.872-61.264c1.941 0 4.368-.299 7.28-.896a42.824 42.824 0 0 0 8.288-2.576c2.763-1.195 5.264-2.595 7.504-4.2 2.24-1.605 4.07-3.23 5.488-4.872-3.51.821-7.037 1.717-10.584 2.688-3.547.97-6.795 1.96-9.744 2.968-2.95 1.008-5.395 2.035-7.336 3.08-1.643.821-2.725 1.493-3.248 2.016-.523.523-.784.859-.784 1.008 0 .523 1.045.784 3.136.784zM178.5 84.152c-2.763 0-4.779-.747-6.048-2.24-1.27-1.493-1.904-3.173-1.904-5.04 0-.597.056-1.176.168-1.736.112-.56.243-1.139.392-1.736.523-1.493 1.475-3.323 2.856-5.488a52.793 52.793 0 0 1 4.648-6.216c1.717-1.979 3.36-3.416 4.928-4.312-.747-.821-1.12-1.83-1.12-3.024 0-2.688 2.09-4.667 6.272-5.936a13.852 13.852 0 0 1 3.416-.728 42.709 42.709 0 0 1 3.864-.168c1.717 0 3.397.112 5.04.336 2.39.373 4.48 1.4 6.272 3.08 1.792 1.68 2.837 3.715 3.136 6.104.15.821.15 1.643 0 2.464 1.195.075 2.37.093 3.528.056a99.579 99.579 0 0 1 3.192-.056c2.24 0 4.536-.168 6.888-.504a67.316 67.316 0 0 0 6.496-1.232c1.979-.485 3.453-.99 4.424-1.512.597-.224 1.045-.336 1.344-.336.597 0 .97.224 1.12.672 0 .747-.71 1.456-2.128 2.128-1.643.747-4.144 1.493-7.504 2.24-3.36.747-6.907 1.195-10.64 1.344-.896.075-1.96.13-3.192.168a135.89 135.89 0 0 1-4.088.056c-.821 2.987-2.408 5.787-4.76 8.4-2.352 2.613-5.096 4.91-8.232 6.888-3.136 1.979-6.328 3.528-9.576 4.648-3.248 1.12-6.179 1.68-8.792 1.68zm27.888-24.864c.373-1.12.56-2.09.56-2.912 0-1.344-.541-2.501-1.624-3.472-1.083-.97-3.117-1.456-6.104-1.456-3.061 0-5.619.43-7.672 1.288-2.053.859-3.08 1.624-3.08 2.296 0 .15.15.373.448.672.299.299.896.597 1.792.896a56.859 56.859 0 0 0 7.616 1.792 73.98 73.98 0 0 0 8.064.896zm-25.76 21.616c1.419-.299 3.192-.97 5.32-2.016 2.128-1.045 4.368-2.37 6.72-3.976a50.324 50.324 0 0 0 6.552-5.32c2.09-1.867 3.995-4.256 5.712-7.168-2.763 0-5.47-.037-8.12-.112-2.65-.075-5.021-.597-7.112-1.568-.896.075-2.165.765-3.808 2.072-1.643 1.307-3.285 2.93-4.928 4.872-1.643 1.941-3.043 3.901-4.2 5.88s-1.736 3.677-1.736 5.096c0 .672.243 1.25.728 1.736.485.485 1.363.728 2.632.728.299 0 .635-.019 1.008-.056.373-.037.784-.093 1.232-.168z"/>
        <path d="M257.572 84.04c-3.285 0-6.067-.877-8.344-2.632-2.277-1.755-3.976-3.995-5.096-6.72a23.665 23.665 0 0 1-1.792-8.456 114.46 114.46 0 0 0-6.888 6.328 75.34 75.34 0 0 0-5.768 6.44l.224.784c.15.224.224.448.224.672v.672c0 .672-.187 1.232-.56 1.68a3.41 3.41 0 0 1-1.456 1.008c-.448.15-.859.224-1.232.224-.523 0-1.064-.15-1.624-.448-.56-.299-.952-.71-1.176-1.232-.448-1.045-.672-2.203-.672-3.472 0-2.763.747-5.843 2.24-9.24a143.063 143.063 0 0 1 4.816-9.912c-.896 0-1.344-.299-1.344-.896 0-.523.336-1.045 1.008-1.568 1.568-.97 2.501-1.755 2.8-2.352 1.344-2.688 3.099-5.805 5.264-9.352 2.165-3.547 4.685-7.261 7.56-11.144a164.267 164.267 0 0 1 9.184-11.312c3.248-3.659 6.627-6.981 10.136-9.968 3.51-2.987 7.019-5.376 10.528-7.168 3.51-1.792 6.87-2.688 10.08-2.688 2.613 0 4.461.579 5.544 1.736 1.083 1.157 1.624 2.52 1.624 4.088 0 1.12-.205 2.259-.616 3.416a16.767 16.767 0 0 1-1.512 3.192c-2.016 3.285-4.648 6.57-7.896 9.856-3.248 3.285-6.85 6.459-10.808 9.52a166.359 166.359 0 0 1-12.152 8.568 251.718 251.718 0 0 1-11.872 7.168c-3.77 2.128-7.112 3.864-10.024 5.208a214.043 214.043 0 0 0-4.144 8.288c-1.419 2.987-2.539 5.787-3.36 8.4 1.493-1.493 3.304-3.173 5.432-5.04a235.042 235.042 0 0 1 6.776-5.712c.15-.747.299-1.475.448-2.184.15-.71.373-1.363.672-1.96.896-2.539 2.053-3.808 3.472-3.808.597 0 1.12.224 1.568.672.448.448.821.97 1.12 1.568 3.21-2.39 6.384-4.573 9.52-6.552 3.136-1.979 6.03-3.565 8.68-4.76 2.65-1.195 4.797-1.792 6.44-1.792 2.39 0 3.584.97 3.584 2.912 0 .97-.41 1.867-1.232 2.688-.821.821-1.979 1.344-3.472 1.568-4.032.597-8.083 1.81-12.152 3.64a75.76 75.76 0 0 0-11.816 6.664c-.896 2.315-1.344 4.816-1.344 7.504 0 3.21.784 6.03 2.352 8.456 1.568 2.427 4.181 3.64 7.84 3.64 2.464 0 5.115-.504 7.952-1.512 2.837-1.008 5.693-2.296 8.568-3.864a88.567 88.567 0 0 0 8.176-5.04c2.576-1.792 4.835-3.472 6.776-5.04.373-.373.765-.69 1.176-.952.41-.261.765-.541 1.064-.84.523-.373 1.27-.97 2.24-1.792.224-.075.485-.112.784-.112.597 0 .896.299.896.896 0 .299-.187.71-.56 1.232-.448.523-1.456 1.493-3.024 2.912-1.568 1.419-3.49 3.005-5.768 4.76a119.93 119.93 0 0 1-7.336 5.208 69.922 69.922 0 0 1-7.84 4.48c-1.568.747-3.621 1.512-6.16 2.296a26.05 26.05 0 0 1-7.728 1.176zM240.1 51.672c5.6-3.136 11.35-6.533 17.248-10.192a134.699 134.699 0 0 0 16.632-12.152c5.19-4.443 9.427-9.427 12.712-14.952.373-.672.765-1.4 1.176-2.184.41-.784.765-1.55 1.064-2.296.075-.299.13-.56.168-.784a3.52 3.52 0 0 0 .056-.56c0-.97-.597-1.456-1.792-1.456-1.419 0-3.267.523-5.544 1.568-2.277 1.045-4.704 2.408-7.28 4.088a81.786 81.786 0 0 0-7.392 5.432c-2.352 1.941-4.312 3.77-5.88 5.488a323.797 323.797 0 0 0-7.784 9.128 209.968 209.968 0 0 0-7.784 10.024c-2.39 3.285-4.256 6.235-5.6 8.848z"/>
        <path d="M292.74 84.152c-2.763 0-4.779-.747-6.048-2.24-1.27-1.493-1.904-3.173-1.904-5.04 0-.597.056-1.176.168-1.736.112-.56.243-1.139.392-1.736.523-1.493 1.475-3.323 2.856-5.488a52.793 52.793 0 0 1 4.648-6.216c1.717-1.979 3.36-3.416 4.928-4.312-.747-.821-1.12-1.83-1.12-3.024 0-2.688 2.09-4.667 6.272-5.936a13.852 13.852 0 0 1 3.416-.728 42.709 42.709 0 0 1 3.864-.168c1.717 0 3.397.112 5.04.336 2.39.373 4.48 1.4 6.272 3.08 1.792 1.68 2.837 3.715 3.136 6.104.15.821.15 1.643 0 2.464 1.195.075 2.37.093 3.528.056a99.579 99.579 0 0 1 3.192-.056c2.24 0 4.536-.168 6.888-.504a67.316 67.316 0 0 0 6.496-1.232c1.979-.485 3.453-.99 4.424-1.512.597-.224 1.045-.336 1.344-.336.597 0 .97.224 1.12.672 0 .747-.71 1.456-2.128 2.128-1.643.747-4.144 1.493-7.504 2.24-3.36.747-6.907 1.195-10.64 1.344-.896.075-1.96.13-3.192.168a135.89 135.89 0 0 1-4.088.056c-.821 2.987-2.408 5.787-4.76 8.4-2.352 2.613-5.096 4.91-8.232 6.888-3.136 1.979-6.328 3.528-9.576 4.648-3.248 1.12-6.179 1.68-8.792 1.68zm27.888-24.864c.373-1.12.56-2.09.56-2.912 0-1.344-.541-2.501-1.624-3.472-1.083-.97-3.117-1.456-6.104-1.456-3.061 0-5.619.43-7.672 1.288-2.053.859-3.08 1.624-3.08 2.296 0 .15.15.373.448.672.299.299.896.597 1.792.896a56.859 56.859 0 0 0 7.616 1.792 73.98 73.98 0 0 0 8.064.896zm-25.76 21.616c1.419-.299 3.192-.97 5.32-2.016 2.128-1.045 4.368-2.37 6.72-3.976a50.324 50.324 0 0 0 6.552-5.32c2.09-1.867 3.995-4.256 5.712-7.168-2.763 0-5.47-.037-8.12-.112-2.65-.075-5.021-.597-7.112-1.568-.896.075-2.165.765-3.808 2.072-1.643 1.307-3.285 2.93-4.928 4.872-1.643 1.941-3.043 3.901-4.2 5.88s-1.736 3.677-1.736 5.096c0 .672.243 1.25.728 1.736.485.485 1.363.728 2.632.728.299 0 .635-.019 1.008-.056.373-.037.784-.093 1.232-.168z"/>
        <path d="M350.98 52.68c-.821 0-1.437-.261-1.848-.784-.41-.523-.616-1.157-.616-1.904 0-.597.187-1.27.56-2.016.299-.672 1.12-1.232 2.464-1.68a25.118 25.118 0 0 1 4.312-1.008c1.53-.224 2.707-.336 3.528-.336 1.12 0 1.68.15 1.68.448 0 .224-.299.523-.896.896-.15.075-.355.187-.616.336-.261.15-.579.299-.952.448-.523.224-1.12.504-1.792.84-.672.336-1.083.728-1.232 1.176a7.1 7.1 0 0 1-1.96 2.52c-.859.71-1.736 1.064-2.632 1.064zm-67.648 79.744c-.821 0-1.624-.019-2.408-.056a56.059 56.059 0 0 1-2.408-.168c-4.032-.523-7.803-1.717-11.312-3.584-3.51-1.867-6.31-4.63-8.4-8.288-.523-.821-.784-1.53-.784-2.128 0-.597.187-.97.56-1.12h.112c.373 0 .784.15 1.232.448.448.299.859.821 1.232 1.568 2.016 3.659 4.704 6.31 8.064 7.952 3.36 1.643 7.205 2.464 11.536 2.464 5.376 0 10.323-1.045 14.84-3.136 4.517-2.09 8.68-4.91 12.488-8.456 3.808-3.547 7.261-7.523 10.36-11.928a139.559 139.559 0 0 0 8.456-13.608A363.15 363.15 0 0 0 333.844 79a666.63 666.63 0 0 1 4.312-8.456 274.735 274.735 0 0 1 4.424-8.232c.821-1.493 1.941-2.464 3.36-2.912 1.419-.448 2.875-.597 4.368-.448.373 0 .71.019 1.008.056.299.037.523.056.672.056.747.075 1.157.224 1.232.448.448.299.448.672 0 1.12-.224.15-.448.261-.672.336a2.827 2.827 0 0 0-.672.336c-1.792 1.045-3.79 3.136-5.992 6.272-2.203 3.136-4.499 6.87-6.888 11.2a237.834 237.834 0 0 0-4.368 8.736 544.45 544.45 0 0 1-4.592 9.408 154.397 154.397 0 0 1-4.704 9.296c-1.643 2.987-3.36 5.675-5.152 8.064-2.837 3.733-6.235 6.963-10.192 9.688a48.352 48.352 0 0 1-12.768 6.272 45.351 45.351 0 0 1-13.888 2.184zM379.764 83.592a21.21 21.21 0 0 1-4.928-.56c-1.568-.373-2.987-.933-4.256-1.68-3.285-2.09-4.928-4.853-4.928-8.288 0-2.688.915-5.432 2.744-8.232 1.83-2.8 4.2-5.47 7.112-8.008 2.912-2.539 5.973-4.63 9.184-6.272 1.941-1.045 3.883-1.792 5.824-2.24 1.941-.448 3.659-.672 5.152-.672 2.613 0 4.35.504 5.208 1.512.859 1.008 1.288 2.184 1.288 3.528 0 1.419-.448 2.781-1.344 4.088-.896 1.307-2.165 2.595-3.808 3.864-2.837 2.315-6.701 4.368-11.592 6.16a74.889 74.889 0 0 1-15.064 3.808c-.747 1.493-1.12 2.875-1.12 4.144.15 2.09 1.25 3.565 3.304 4.424 2.053.859 4.35 1.288 6.888 1.288.896 0 1.755-.037 2.576-.112a22.28 22.28 0 0 0 2.352-.336c3.733-.747 7.56-2.09 11.48-4.032a89.938 89.938 0 0 0 11.368-6.72c3.659-2.539 6.944-5.077 9.856-7.616.448-.15.747-.224.896-.224.523 0 .784.261.784.784 0 .373-.15.747-.448 1.12-.523.896-1.587 2.053-3.192 3.472a70.86 70.86 0 0 1-5.432 4.312 299.658 299.658 0 0 1-5.88 4.144c-1.904 1.307-3.49 2.296-4.76 2.968-2.688 1.493-5.75 2.763-9.184 3.808-3.435 1.045-6.795 1.568-10.08 1.568zm-7.504-16.128c2.39-.597 5.152-1.363 8.288-2.296a67.245 67.245 0 0 0 8.96-3.36c2.837-1.307 4.965-2.744 6.384-4.312.597-.597 1.008-1.213 1.232-1.848.224-.635.336-1.176.336-1.624 0-.373-.13-.71-.392-1.008-.261-.299-1.027-.448-2.296-.448-1.792 0-4.107.728-6.944 2.184-2.837 1.456-5.656 3.323-8.456 5.6-2.8 2.277-5.17 4.648-7.112 7.112z"/>
        <path d="M405.972 85.608c-1.27 0-1.904-.597-1.904-1.792 0-.747.205-1.568.616-2.464a36.98 36.98 0 0 1 1.512-2.912 91.817 91.817 0 0 1 3.304-5.376c1.232-1.867 2.296-3.397 3.192-4.592.747-.97 1.792-2.352 3.136-4.144a63.254 63.254 0 0 0 3.808-5.712c1.643-2.688 2.464-4.928 2.464-6.72 0-.97-.299-1.717-.896-2.24a8.935 8.935 0 0 1-.896-1.064c-.299-.41-.448-.765-.448-1.064 0-.747.299-1.12.896-1.12s1.157.224 1.68.672c.523.299 1.101.71 1.736 1.232a11.29 11.29 0 0 1 1.736 1.792c.224.299.467.579.728.84.261.261.467.579.616.952.224.373.41.765.56 1.176.15.41.224.877.224 1.4 0 1.045-.448 2.315-1.344 3.808a36.342 36.342 0 0 1-4.76 6.44 361.31 361.31 0 0 0-5.32 5.88 7.83 7.83 0 0 1-.728.84 7.83 7.83 0 0 0-.728.84 293.042 293.042 0 0 1 9.464-8.344c3.397-2.875 6.365-5.133 8.904-6.776.821-.523 1.904-1.027 3.248-1.512 1.344-.485 2.613-.728 3.808-.728 1.12 0 2.11.317 2.968.952.859.635 1.288 1.81 1.288 3.528 0 1.493-.299 3.192-.896 5.096a92.34 92.34 0 0 1-1.792 5.208 25.447 25.447 0 0 0-1.232 3.416c-.299 1.083-.448 2.035-.448 2.856 0 2.613 1.419 3.92 4.256 3.92.747 0 1.624-.093 2.632-.28 1.008-.187 2.11-.504 3.304-.952 3.808-1.419 7.672-3.397 11.592-5.936 3.92-2.539 7.448-5.115 10.584-7.728.373-.299.747-.579 1.12-.84.373-.261.71-.504 1.008-.728.373-.299.728-.579 1.064-.84.336-.261.728-.579 1.176-.952.448-.15.747-.224.896-.224.448 0 .672.261.672.784s-.15.97-.448 1.344c-.448.597-1.53 1.68-3.248 3.248-1.717 1.568-3.827 3.323-6.328 5.264a87.009 87.009 0 0 1-8.176 5.6c-2.95 1.792-5.917 3.21-8.904 4.256a26.387 26.387 0 0 1-8.4 1.344c-2.24 0-4.256-.523-6.048-1.568-1.792-1.045-2.688-2.837-2.688-5.376 0-1.493.373-3.248 1.12-5.264a90.36 90.36 0 0 1 1.736-4.144c.635-1.419 1.027-2.837 1.176-4.256.075-.299.112-.579.112-.84v-.616c0-.896-.13-1.456-.392-1.68-.261-.224-.541-.336-.84-.336-.747 0-1.661.28-2.744.84a31.154 31.154 0 0 0-2.968 1.736c-.821.523-2.11 1.55-3.864 3.08a254.994 254.994 0 0 0-5.712 5.152 2043.353 2043.353 0 0 1-5.88 5.432 73.687 73.687 0 0 0-3.416 3.416 658.74 658.74 0 0 0-2.968 3.192 99.308 99.308 0 0 1-2.464 2.576c-.672.672-1.157 1.008-1.456 1.008z"/>
        <path d="M476.644 83.032c-2.09 0-3.976-.41-5.656-1.232-1.68-.821-2.52-2.39-2.52-4.704 0-2.24.56-4.405 1.68-6.496a27.952 27.952 0 0 1 3.976-5.656c1.53-1.68 2.819-3.005 3.864-3.976-.075-.075-.112-.261-.112-.56 0-.597.261-1.195.784-1.792.373-.523.915-1.064 1.624-1.624.71-.56 1.512-.99 2.408-1.288.448-.15.896-.224 1.344-.224.896 0 1.848.205 2.856.616 1.008.41 1.512 1.064 1.512 1.96 0 .523-.187 1.008-.56 1.456-.373.448-.71.747-1.008.896-1.195.896-2.819 2.277-4.872 4.144s-3.79 3.659-5.208 5.376c-2.613 3.36-3.92 5.899-3.92 7.616 0 .747.317 1.363.952 1.848.635.485 1.773.728 3.416.728 2.613 0 5.208-.43 7.784-1.288 2.576-.859 4.947-1.848 7.112-2.968a40.708 40.708 0 0 0 5.096-3.024 140.566 140.566 0 0 0 4.76-3.472 2296.206 2296.206 0 0 0 9.632-7.84c.448-.15.747-.224.896-.224.523 0 .784.261.784.784 0 .373-.187.821-.56 1.344-.448.597-1.381 1.568-2.8 2.912-1.419 1.344-3.155 2.856-5.208 4.536-2.053 1.68-4.35 3.341-6.888 4.984a57.134 57.134 0 0 1-7.84 4.256c-1.419.672-3.397 1.325-5.936 1.96s-5.003.952-7.392.952zm7.504-34.272c-.747 0-1.12-.299-1.12-.896 0-.373.224-.728.672-1.064.448-.336.97-.653 1.568-.952a53.835 53.835 0 0 0 5.6-3.472 209.147 209.147 0 0 0 4.48-3.248l.224-.224c.597-.15 1.25-.019 1.96.392.71.41 1.25.896 1.624 1.456.373.56.373 1.064 0 1.512-1.344.747-3.23 1.699-5.656 2.856-2.427 1.157-4.536 2.11-6.328 2.856-1.045.523-2.053.784-3.024.784zM578.228 84.04c-3.285 0-6.067-.877-8.344-2.632-2.277-1.755-3.976-3.995-5.096-6.72a23.665 23.665 0 0 1-1.792-8.456 114.46 114.46 0 0 0-6.888 6.328A75.34 75.34 0 0 0 550.34 79l.224.784c.15.224.224.448.224.672v.672c0 .672-.187 1.232-.56 1.68a3.41 3.41 0 0 1-1.456 1.008c-.448.15-.859.224-1.232.224-.523 0-1.064-.15-1.624-.448-.56-.299-.952-.71-1.176-1.232-.448-1.045-.672-2.203-.672-3.472 0-2.763.747-5.843 2.24-9.24a143.063 143.063 0 0 1 4.816-9.912c-.896 0-1.344-.299-1.344-.896 0-.523.336-1.045 1.008-1.568 1.568-.97 2.501-1.755 2.8-2.352 1.344-2.688 3.099-5.805 5.264-9.352 2.165-3.547 4.685-7.261 7.56-11.144a164.267 164.267 0 0 1 9.184-11.312c3.248-3.659 6.627-6.981 10.136-9.968 3.51-2.987 7.019-5.376 10.528-7.168 3.51-1.792 6.87-2.688 10.08-2.688 2.613 0 4.461.579 5.544 1.736 1.083 1.157 1.624 2.52 1.624 4.088 0 1.12-.205 2.259-.616 3.416a16.767 16.767 0 0 1-1.512 3.192c-2.016 3.285-4.648 6.57-7.896 9.856-3.248 3.285-6.85 6.459-10.808 9.52a166.359 166.359 0 0 1-12.152 8.568 251.718 251.718 0 0 1-11.872 7.168c-3.77 2.128-7.112 3.864-10.024 5.208a214.043 214.043 0 0 0-4.144 8.288c-1.419 2.987-2.539 5.787-3.36 8.4 1.493-1.493 3.304-3.173 5.432-5.04a235.042 235.042 0 0 1 6.776-5.712c.15-.747.299-1.475.448-2.184.15-.71.373-1.363.672-1.96.896-2.539 2.053-3.808 3.472-3.808.597 0 1.12.224 1.568.672.448.448.821.97 1.12 1.568 3.21-2.39 6.384-4.573 9.52-6.552 3.136-1.979 6.03-3.565 8.68-4.76 2.65-1.195 4.797-1.792 6.44-1.792 2.39 0 3.584.97 3.584 2.912 0 .97-.41 1.867-1.232 2.688-.821.821-1.979 1.344-3.472 1.568-4.032.597-8.083 1.81-12.152 3.64a75.76 75.76 0 0 0-11.816 6.664c-.896 2.315-1.344 4.816-1.344 7.504 0 3.21.784 6.03 2.352 8.456 1.568 2.427 4.181 3.64 7.84 3.64 2.464 0 5.115-.504 7.952-1.512 2.837-1.008 5.693-2.296 8.568-3.864a88.567 88.567 0 0 0 8.176-5.04c2.576-1.792 4.835-3.472 6.776-5.04.373-.373.765-.69 1.176-.952.41-.261.765-.541 1.064-.84.523-.373 1.27-.97 2.24-1.792.224-.075.485-.112.784-.112.597 0 .896.299.896.896 0 .299-.187.71-.56 1.232-.448.523-1.456 1.493-3.024 2.912-1.568 1.419-3.49 3.005-5.768 4.76a119.93 119.93 0 0 1-7.336 5.208 69.922 69.922 0 0 1-7.84 4.48c-1.568.747-3.621 1.512-6.16 2.296a26.05 26.05 0 0 1-7.728 1.176zm-17.472-32.368c5.6-3.136 11.35-6.533 17.248-10.192a134.699 134.699 0 0 0 16.632-12.152c5.19-4.443 9.427-9.427 12.712-14.952.373-.672.765-1.4 1.176-2.184.41-.784.765-1.55 1.064-2.296.075-.299.13-.56.168-.784a3.52 3.52 0 0 0 .056-.56c0-.97-.597-1.456-1.792-1.456-1.419 0-3.267.523-5.544 1.568-2.277 1.045-4.704 2.408-7.28 4.088a81.786 81.786 0 0 0-7.392 5.432c-2.352 1.941-4.312 3.77-5.88 5.488a323.797 323.797 0 0 0-7.784 9.128 209.968 209.968 0 0 0-7.784 10.024c-2.39 3.285-4.256 6.235-5.6 8.848z"/>
        <path d="M626.948 84.152c-1.419 0-2.781-.112-4.088-.336-1.307-.224-2.483-.597-3.528-1.12-2.39-1.195-3.976-2.912-4.76-5.152-.784-2.24-1.176-4.405-1.176-6.496 0-.97.056-1.867.168-2.688.112-.821.205-1.605.28-2.352-.224.075-.41.093-.56.056a1.841 1.841 0 0 0-.448-.056c-.672-.15-1.008-.448-1.008-.896 0-.373.187-.71.56-1.008.224-.15.579-.43 1.064-.84.485-.41.877-.765 1.176-1.064.597-2.016 1.493-4.592 2.688-7.728s2.875-6.533 5.04-10.192c1.643-2.763 3.696-6.01 6.16-9.744 2.464-3.733 5.264-7.56 8.4-11.48a116.842 116.842 0 0 1 9.968-10.976c3.51-3.397 7.112-6.141 10.808-8.232 3.696-2.09 7.373-3.136 11.032-3.136 1.941 0 3.36.541 4.256 1.624.896 1.083 1.344 2.52 1.344 4.312 0 2.539-.933 5.75-2.8 9.632-1.941 4.032-4.368 7.84-7.28 11.424-2.912 3.584-5.899 6.832-8.96 9.744-3.061 2.912-5.787 5.413-8.176 7.504a154.858 154.858 0 0 1-8.68 6.888c-2.8 2.053-5.395 3.827-7.784 5.32a133.86 133.86 0 0 1-6.328 3.864c-1.904 1.083-3.379 1.96-4.424 2.632-.672 2.016-1.008 4.33-1.008 6.944 0 2.763.616 5.19 1.848 7.28 1.232 2.09 3.453 3.136 6.664 3.136 2.315 0 4.76-.467 7.336-1.4 2.576-.933 4.91-1.923 7-2.968a90.602 90.602 0 0 0 9.072-5.208c2.912-1.904 5.488-3.696 7.728-5.376 2.24-1.68 3.845-2.968 4.816-3.864.299-.299.56-.467.784-.504.224-.037.373-.056.448-.056.373.15.56.448.56.896 0 .672-.373 1.381-1.12 2.128-3.061 3.061-6.421 6.01-10.08 8.848a58.39 58.39 0 0 1-11.648 7.056 42.297 42.297 0 0 1-7.672 2.632c-2.65.635-5.208.952-7.672.952zm-5.488-25.088c1.419-.821 3.453-2.09 6.104-3.808 2.65-1.717 5.544-3.715 8.68-5.992a113.281 113.281 0 0 0 8.848-7.112 198.818 198.818 0 0 0 5.208-4.872 137.898 137.898 0 0 0 6.384-6.608 85.796 85.796 0 0 0 6.16-7.616c1.904-2.65 3.453-5.301 4.648-7.952 1.195-2.65 1.792-5.133 1.792-7.448 0-1.045-.205-1.773-.616-2.184-.41-.41-.952-.616-1.624-.616-1.344 0-3.117.653-5.32 1.96-2.203 1.307-4.573 3.005-7.112 5.096a80.03 80.03 0 0 0-7.392 6.944c-3.659 3.883-7.187 8.27-10.584 13.16-3.397 4.89-6.403 9.707-9.016 14.448-2.613 4.741-4.667 8.941-6.16 12.6z"/>
        <path d="M683.284 45.176c-.896 0-1.53-.243-1.904-.728-.373-.485-.56-1.101-.56-1.848 0-.821.15-1.53.448-2.128.299-.597 1.101-1.12 2.408-1.568a23.684 23.684 0 0 1 4.256-1.008c1.53-.224 2.707-.336 3.528-.336.896 0 1.344.187 1.344.56 0 .299-.187.56-.56.784-.15.075-.355.187-.616.336-.261.15-.579.299-.952.448-.523.224-1.101.504-1.736.84-.635.336-1.027.728-1.176 1.176a6.851 6.851 0 0 1-1.904 2.464c-.821.672-1.68 1.008-2.576 1.008zm-18.592 37.856c-2.09 0-3.976-.41-5.656-1.232-1.68-.821-2.52-2.39-2.52-4.704 0-2.24.523-4.405 1.568-6.496a28.948 28.948 0 0 1 3.976-5.936c1.605-1.867 3.155-3.51 4.648-4.928 1.27-1.12 2.277-2.016 3.024-2.688-.075-.075-.112-.224-.112-.448 0-.597.261-1.195.784-1.792.821-1.195 2.165-2.203 4.032-3.024.448-.15.896-.224 1.344-.224.97 0 1.941.205 2.912.616.97.41 1.456 1.064 1.456 1.96 0 .523-.187 1.008-.56 1.456-.373.448-.71.784-1.008 1.008-.597.448-1.512 1.213-2.744 2.296a106.949 106.949 0 0 0-3.976 3.696 431.047 431.047 0 0 0-4.088 4.032c-1.307 1.307-2.296 2.408-2.968 3.304-2.613 3.36-3.92 5.899-3.92 7.616 0 .747.317 1.363.952 1.848.635.485 1.773.728 3.416.728 2.613 0 5.208-.43 7.784-1.288 2.576-.859 4.947-1.848 7.112-2.968a40.708 40.708 0 0 0 5.096-3.024 140.566 140.566 0 0 0 4.76-3.472 373.807 373.807 0 0 0 4.76-3.92 560.06 560.06 0 0 1 4.872-4.032c.224-.075.485-.112.784-.112.597 0 .896.261.896.784 0 .448-.187.859-.56 1.232-.448.597-1.381 1.568-2.8 2.912-1.419 1.344-3.155 2.875-5.208 4.592-2.053 1.717-4.35 3.397-6.888 5.04a57.134 57.134 0 0 1-7.84 4.256c-1.419.597-3.397 1.232-5.936 1.904-2.539.672-5.003 1.008-7.392 1.008z"/>
        <path d="M709.716 83.592a21.21 21.21 0 0 1-4.928-.56c-1.568-.373-2.987-.933-4.256-1.68-3.285-2.09-4.928-4.853-4.928-8.288 0-2.688.915-5.432 2.744-8.232 1.83-2.8 4.2-5.47 7.112-8.008 2.912-2.539 5.973-4.63 9.184-6.272 1.941-1.045 3.883-1.792 5.824-2.24 1.941-.448 3.659-.672 5.152-.672 2.613 0 4.35.504 5.208 1.512.859 1.008 1.288 2.184 1.288 3.528 0 1.419-.448 2.781-1.344 4.088-.896 1.307-2.165 2.595-3.808 3.864-2.837 2.315-6.701 4.368-11.592 6.16a74.889 74.889 0 0 1-15.064 3.808c-.747 1.493-1.12 2.875-1.12 4.144.15 2.09 1.25 3.565 3.304 4.424 2.053.859 4.35 1.288 6.888 1.288.896 0 1.755-.037 2.576-.112a22.28 22.28 0 0 0 2.352-.336c3.733-.747 7.56-2.09 11.48-4.032a89.938 89.938 0 0 0 11.368-6.72c3.659-2.539 6.944-5.077 9.856-7.616.448-.15.747-.224.896-.224.523 0 .784.261.784.784 0 .373-.15.747-.448 1.12-.523.896-1.587 2.053-3.192 3.472a70.86 70.86 0 0 1-5.432 4.312 299.658 299.658 0 0 1-5.88 4.144c-1.904 1.307-3.49 2.296-4.76 2.968-2.688 1.493-5.75 2.763-9.184 3.808-3.435 1.045-6.795 1.568-10.08 1.568zm-7.504-16.128c2.39-.597 5.152-1.363 8.288-2.296a67.245 67.245 0 0 0 8.96-3.36c2.837-1.307 4.965-2.744 6.384-4.312.597-.597 1.008-1.213 1.232-1.848.224-.635.336-1.176.336-1.624 0-.373-.13-.71-.392-1.008-.261-.299-1.027-.448-2.296-.448-1.792 0-4.107.728-6.944 2.184-2.837 1.456-5.656 3.323-8.456 5.6-2.8 2.277-5.17 4.648-7.112 7.112z"/>
        <path d="M735.924 85.608c-1.27 0-1.904-.597-1.904-1.792 0-.747.205-1.568.616-2.464a36.98 36.98 0 0 1 1.512-2.912 91.817 91.817 0 0 1 3.304-5.376c1.232-1.867 2.296-3.397 3.192-4.592.747-.97 1.792-2.352 3.136-4.144a63.254 63.254 0 0 0 3.808-5.712c1.643-2.688 2.464-4.928 2.464-6.72 0-.97-.299-1.717-.896-2.24a8.935 8.935 0 0 1-.896-1.064c-.299-.41-.448-.765-.448-1.064 0-.747.299-1.12.896-1.12s1.157.224 1.68.672c.523.299 1.101.71 1.736 1.232a11.29 11.29 0 0 1 1.736 1.792c.224.299.467.579.728.84.261.261.467.579.616.952.224.373.41.765.56 1.176.15.41.224.877.224 1.4 0 1.045-.448 2.315-1.344 3.808a36.342 36.342 0 0 1-4.76 6.44 361.31 361.31 0 0 0-5.32 5.88 7.83 7.83 0 0 1-.728.84 7.83 7.83 0 0 0-.728.84 293.042 293.042 0 0 1 9.464-8.344c3.397-2.875 6.365-5.133 8.904-6.776.821-.523 1.904-1.027 3.248-1.512 1.344-.485 2.613-.728 3.808-.728 1.12 0 2.11.317 2.968.952.859.635 1.288 1.81 1.288 3.528 0 1.493-.299 3.192-.896 5.096a92.34 92.34 0 0 1-1.792 5.208 25.447 25.447 0 0 0-1.232 3.416c-.299 1.083-.448 2.035-.448 2.856 0 2.613 1.419 3.92 4.256 3.92.747 0 1.624-.093 2.632-.28 1.008-.187 2.11-.504 3.304-.952 3.808-1.419 7.672-3.397 11.592-5.936 3.92-2.539 7.448-5.115 10.584-7.728.373-.299.747-.579 1.12-.84.373-.261.71-.504 1.008-.728.373-.299.728-.579 1.064-.84.336-.261.728-.579 1.176-.952.448-.15.747-.224.896-.224.448 0 .672.261.672.784s-.15.97-.448 1.344c-.448.597-1.53 1.68-3.248 3.248-1.717 1.568-3.827 3.323-6.328 5.264a87.009 87.009 0 0 1-8.176 5.6c-2.95 1.792-5.917 3.21-8.904 4.256a26.387 26.387 0 0 1-8.4 1.344c-2.24 0-4.256-.523-6.048-1.568-1.792-1.045-2.688-2.837-2.688-5.376 0-1.493.373-3.248 1.12-5.264a90.36 90.36 0 0 1 1.736-4.144c.635-1.419 1.027-2.837 1.176-4.256.075-.299.112-.579.112-.84v-.616c0-.896-.13-1.456-.392-1.68-.261-.224-.541-.336-.84-.336-.747 0-1.661.28-2.744.84a31.154 31.154 0 0 0-2.968 1.736c-.821.523-2.11 1.55-3.864 3.08a254.994 254.994 0 0 0-5.712 5.152 2043.353 2043.353 0 0 1-5.88 5.432 73.687 73.687 0 0 0-3.416 3.416 658.74 658.74 0 0 0-2.968 3.192 99.308 99.308 0 0 1-2.464 2.576c-.672.672-1.157 1.008-1.456 1.008z"/>
        <path d="M808.388 84.712c-2.539 0-4.835-.504-6.888-1.512s-3.08-3.005-3.08-5.992c0-2.016.765-4.312 2.296-6.888 1.53-2.576 3.547-5.32 6.048-8.232a145.903 145.903 0 0 1 8.176-8.736 243.03 243.03 0 0 1 8.68-8.176 63.197 63.197 0 0 1-2.072-.448 137 137 0 0 1-1.848-.448c-3.36-.821-7.373-1.81-12.04-2.968a317.107 317.107 0 0 0-14.952-3.304 229.136 229.136 0 0 0-16.24-2.856c-5.6-.784-11.05-1.176-16.352-1.176-6.944 0-13.253.896-18.928 2.688-5.675 1.792-10.005 4.965-12.992 9.52a7.31 7.31 0 0 1-.672.784c-.224.224-.448.373-.672.448-.075 0-.13.019-.168.056-.037.037-.093.056-.168.056-.448 0-.747-.261-.896-.784-.075-.15-.112-.373-.112-.672 0-.97.261-1.755.784-2.352 2.39-3.51 5.395-6.272 9.016-8.288 3.621-2.016 7.653-3.453 12.096-4.312 4.443-.859 9.053-1.288 13.832-1.288 4.853 0 9.744.317 14.672.952a176.28 176.28 0 0 1 14.224 2.408c4.555.896 8.755 1.848 12.6 2.856a470.295 470.295 0 0 1 9.688 2.632c1.792.448 3.957.97 6.496 1.568 2.539.597 5.301 1.157 8.288 1.68l6.608-5.712c-.299-.821.019-1.83.952-3.024.933-1.195 2.259-2.165 3.976-2.912.15-.075.485-.112 1.008-.112.747 0 1.605.112 2.576.336.97.224 1.83.56 2.576 1.008.747.448 1.12 1.008 1.12 1.68 0 .299-.261.71-.784 1.232a13.269 13.269 0 0 1-1.736 1.456c-.635.448-1.064.747-1.288.896-.821.448-1.96 1.213-3.416 2.296a398.779 398.779 0 0 0-5.096 3.864c5.376.821 10.49 1.232 15.344 1.232 3.733 0 7.056-.317 9.968-.952s5.227-1.736 6.944-3.304c1.717-1.568 2.576-3.659 2.576-6.272v-.84c0-.261-.037-.541-.112-.84v-.112c0-.747.41-1.12 1.232-1.12.597 0 1.008.336 1.232 1.008a16.514 16.514 0 0 1 .224 2.688c0 3.584-1.045 6.403-3.136 8.456-2.09 2.053-4.816 3.51-8.176 4.368-3.36.859-6.981 1.288-10.864 1.288-3.21 0-6.477-.224-9.8-.672a276.425 276.425 0 0 1-9.576-1.456 172.145 172.145 0 0 0-9.072 8.064 183.675 183.675 0 0 0-8.512 8.624c-2.613 2.837-4.723 5.45-6.328 7.84-1.605 2.39-2.408 4.33-2.408 5.824 0 2.912 2.352 4.368 7.056 4.368 3.51 0 7.616-.859 12.32-2.576.448-.15.915-.317 1.4-.504.485-.187.99-.392 1.512-.616 3.435-1.493 6.832-3.379 10.192-5.656 3.36-2.277 6.421-4.573 9.184-6.888.373-.373.747-.69 1.12-.952.373-.261.71-.504 1.008-.728.373-.299.728-.579 1.064-.84.336-.261.728-.579 1.176-.952.448-.15.747-.224.896-.224.523 0 .784.261.784.784s-.187.97-.56 1.344c-.448.597-1.53 1.699-3.248 3.304-1.717 1.605-3.845 3.379-6.384 5.32a93.25 93.25 0 0 1-8.232 5.6c-2.95 1.792-5.917 3.21-8.904 4.256-1.493.523-3.696 1.139-6.608 1.848-2.912.71-5.787 1.064-8.624 1.064z"/>
        <path d="M867.188 45.176c-.896 0-1.53-.243-1.904-.728-.373-.485-.56-1.101-.56-1.848 0-.821.15-1.53.448-2.128.299-.597 1.101-1.12 2.408-1.568a23.684 23.684 0 0 1 4.256-1.008c1.53-.224 2.707-.336 3.528-.336.896 0 1.344.187 1.344.56 0 .299-.187.56-.56.784-.15.075-.355.187-.616.336-.261.15-.579.299-.952.448-.523.224-1.101.504-1.736.84-.635.336-1.027.728-1.176 1.176a6.851 6.851 0 0 1-1.904 2.464c-.821.672-1.68 1.008-2.576 1.008zm-18.592 37.856c-2.09 0-3.976-.41-5.656-1.232-1.68-.821-2.52-2.39-2.52-4.704 0-2.24.523-4.405 1.568-6.496a28.948 28.948 0 0 1 3.976-5.936c1.605-1.867 3.155-3.51 4.648-4.928 1.27-1.12 2.277-2.016 3.024-2.688-.075-.075-.112-.224-.112-.448 0-.597.261-1.195.784-1.792.821-1.195 2.165-2.203 4.032-3.024.448-.15.896-.224 1.344-.224.97 0 1.941.205 2.912.616.97.41 1.456 1.064 1.456 1.96 0 .523-.187 1.008-.56 1.456-.373.448-.71.784-1.008 1.008-.597.448-1.512 1.213-2.744 2.296a106.949 106.949 0 0 0-3.976 3.696 431.047 431.047 0 0 0-4.088 4.032c-1.307 1.307-2.296 2.408-2.968 3.304-2.613 3.36-3.92 5.899-3.92 7.616 0 .747.317 1.363.952 1.848.635.485 1.773.728 3.416.728 2.613 0 5.208-.43 7.784-1.288 2.576-.859 4.947-1.848 7.112-2.968a40.708 40.708 0 0 0 5.096-3.024 140.566 140.566 0 0 0 4.76-3.472 373.807 373.807 0 0 0 4.76-3.92 560.06 560.06 0 0 1 4.872-4.032c.224-.075.485-.112.784-.112.597 0 .896.261.896.784 0 .448-.187.859-.56 1.232-.448.597-1.381 1.568-2.8 2.912-1.419 1.344-3.155 2.875-5.208 4.592-2.053 1.717-4.35 3.397-6.888 5.04a57.134 57.134 0 0 1-7.84 4.256c-1.419.597-3.397 1.232-5.936 1.904-2.539.672-5.003 1.008-7.392 1.008z"/>
    </g>
</svg>
