<svg width="344" height="137" viewBox="0 0 344 137" xmlns="http://www.w3.org/2000/svg">
    <path d="M110.768 0c1.941 0 3.36.541 4.256 1.624.896 1.083 1.344 2.52 1.344 4.312 0 2.539-.933 5.75-2.8 9.632-1.941 4.032-4.368 7.84-7.28 11.424-2.912 3.584-5.899 6.832-8.96 9.744-3.061 2.912-5.787 5.413-8.176 7.504a154.858 154.858 0 0 1-8.68 6.888c-2.8 2.053-5.395 3.827-7.784 5.32a133.86 133.86 0 0 1-6.328 3.864c-1.904 1.083-3.379 1.96-4.424 2.632-.672 2.016-1.008 4.33-1.008 6.944 0 2.763.616 5.19 1.848 7.28 1.232 2.09 3.453 3.136 6.664 3.136 2.315 0 4.76-.467 7.336-1.4 2.576-.933 4.91-1.923 7-2.968a90.602 90.602 0 0 0 9.072-5.208c2.912-1.904 5.488-3.696 7.728-5.376 2.24-1.68 3.845-2.968 4.816-3.864.299-.299.56-.467.784-.504.224-.037.373-.056.448-.056.372.149.559.446.56.892.194-.266.38-.526.56-.78 1.717-2.539 3.173-4.965 4.368-7.28 1.195-2.315 1.792-4.181 1.792-5.6 0-.821-.261-1.456-.784-1.904-.896-.672-1.344-1.456-1.344-2.352 0-.597.336-.896 1.008-.896.448 0 1.008.224 1.68.672.523.299 1.083.71 1.68 1.232.597.523 1.157 1.12 1.68 1.792.299.299.56.597.784.896l.672.896c.15.373.299.765.448 1.176.15.41.224.877.224 1.4 0 1.195-.41 2.501-1.232 3.92-.821 1.419-1.848 2.95-3.08 4.592a309.32 309.32 0 0 1-3.864 5.04c-.597.747-1.512 1.997-2.744 3.752a63.197 63.197 0 0 0-3.304 5.208c-.448.896-.84 1.717-1.176 2.464-.336.747-.504 1.419-.504 2.016 0 .97.56 1.456 1.68 1.456 1.045 0 2.333-.43 3.864-1.288a37.646 37.646 0 0 0 4.424-2.912 477.3 477.3 0 0 0 3.136-2.408c2.39-2.016 4.872-4.125 7.448-6.328 2.576-2.203 5.059-4.312 7.448-6.328.373-.299.859-.448 1.456-.448 1.045 0 1.867.299 2.464.896.299.224.448.635.448 1.232 0 1.195-.597 2.912-1.792 5.152a34.824 34.824 0 0 1-1.008 2.072 23.13 23.13 0 0 0-1.008 2.184 238.45 238.45 0 0 0-.84 2.128 7.98 7.98 0 0 0-.504 2.016 2.114 2.114 0 0 0-.112.672v.672c0 1.195.336 1.997 1.008 2.408.672.41 1.493.616 2.464.616 1.419 0 2.893-.243 4.424-.728a478.48 478.48 0 0 1 3.752-1.176c3.808-1.493 7.672-3.51 11.592-6.048 3.92-2.539 7.448-5.077 10.584-7.616a28.977 28.977 0 0 1 2.184-1.792 19.378 19.378 0 0 0 2.184-1.904l.033-.031c-.47-.822-.705-1.67-.705-2.545 0-1.344 1.195-2.539 3.584-3.584 2.39-1.045 5.544-1.83 9.464-2.352 3.92-.523 8.12-.71 12.6-.56 1.045 0 2.39.168 4.032.504 1.643.336 3.136.859 4.48 1.568 1.344.71 2.016 1.624 2.016 2.744 0 1.27-.97 2.688-2.912 4.256-1.643 1.27-3.659 2.65-6.048 4.144a193.165 193.165 0 0 1-7.56 4.48 202.023 202.023 0 0 1-7.728 4.144c-2.501 1.27-4.685 2.315-6.552 3.136a148.378 148.378 0 0 1 12.208-1.96 103.02 103.02 0 0 1 12.096-.728c1.867 0 3.715.056 5.544.168a35.11 35.11 0 0 1 5.32.728c1.493.299 3.024.99 4.592 2.072 1.568 1.083 2.352 2.744 2.352 4.984 0 2.016-.896 4.368-2.688 7.056-.224.299-.467.56-.728.784-.261.224-.541.336-.84.336h-.224c-.448 0-.672-.224-.672-.672 0-.448.15-.821.448-1.12 1.045-1.941 1.568-3.472 1.568-4.592 0-1.941-1.213-3.341-3.64-4.2s-5.693-1.288-9.8-1.288c-3.136 0-6.515.205-10.136.616-3.621.41-7.15.915-10.584 1.512a178.171 178.171 0 0 0-9.296 1.848l-.48.11-.923.214c-2.091.484-3.751.88-4.981 1.188-.747.075-1.363-.13-1.848-.616-.485-.485-.728-1.027-.728-1.624 0-.523.187-1.027.56-1.512.373-.485.933-.877 1.68-1.176l.896-.336a80.12 80.12 0 0 0 6.384-2.744l6.16-2.968c.672-.299 1.867-.896 3.584-1.792a162.544 162.544 0 0 0 5.88-3.248c2.203-1.27 4.33-2.595 6.384-3.976 2.053-1.381 3.752-2.707 5.096-3.976 1.344-1.27 2.016-2.315 2.016-3.136 0-.523-.392-.821-1.176-.896-.784-.075-1.773-.112-2.968-.112-2.016 0-4.312.187-6.888.56-2.576.373-4.91.784-7 1.232-2.09.448-3.472.821-4.144 1.12-.224.075-.485.168-.784.28a9.327 9.327 0 0 0-.896.392 3.123 3.123 0 0 0-.896.392c-.299.187-.597.43-.896.728-.523.224-.784.747-.784 1.568 0 .075.019.205.056.392.037.187.093.392.168.616v.224c0 .373-.13.597-.392.672a2.403 2.403 0 0 1-.616.112c-.523-.15-.859-.41-1.008-.784a12.651 12.651 0 0 0-.44-.612l-.12.164c-.672 1.12-1.904 2.52-3.696 4.2-1.792 1.68-3.939 3.435-6.44 5.264a89.595 89.595 0 0 1-8.008 5.208c-2.837 1.643-5.675 2.968-8.512 3.976-2.837 1.008-5.45 1.512-7.84 1.512-3.584 0-6.048-.784-7.392-2.352-1.344-1.568-2.016-3.51-2.016-5.824 0-1.12.15-2.296.448-3.528a43.76 43.76 0 0 1 1.008-3.528 150.28 150.28 0 0 1-4.312 4.368 70.231 70.231 0 0 1-5.488 4.816c-1.979 1.568-3.939 2.856-5.88 3.864-1.941 1.008-3.808 1.512-5.6 1.512-2.24 0-4.07-.97-5.488-2.912-.896-1.344-1.344-2.725-1.344-4.144 0-1.717.467-3.379 1.4-4.984a37.322 37.322 0 0 1 2.667-3.965 108.023 108.023 0 0 1-7.987 6.821 58.39 58.39 0 0 1-11.648 7.056 42.297 42.297 0 0 1-7.672 2.632c-2.65.635-5.208.952-7.672.952-1.419 0-2.781-.112-4.088-.336-1.307-.224-2.483-.597-3.528-1.12-2.39-1.195-3.976-2.912-4.76-5.152-.784-2.24-1.176-4.405-1.176-6.496 0-.97.056-1.867.168-2.688.112-.821.205-1.605.28-2.352-.224.075-.41.093-.56.056a1.841 1.841 0 0 0-.448-.056c-.672-.15-1.008-.448-1.008-.896 0-.373.187-.71.56-1.008.07-.047.155-.108.252-.18a92.457 92.457 0 0 0-6.188.46c-3.21.336-6.44.747-9.688 1.232s-6.179 1.027-8.792 1.624c-2.613.597-4.48 1.195-5.6 1.792 1.27 1.717 1.904 3.547 1.904 5.488 0 3.435-1.68 6.123-5.04 8.064-2.24 1.419-4.76 2.483-7.56 3.192-2.8.71-5.283 1.064-7.448 1.064-.523 0-.99-.019-1.4-.056a11.14 11.14 0 0 1-1.176-.168 6.901 6.901 0 0 1-2.52-.952C.392 84.467 0 83.739 0 82.768c0-1.643.896-3.379 2.688-5.208 1.792-1.83 4.032-3.603 6.72-5.32 2.688-1.717 5.339-3.136 7.952-4.256-1.643-1.717-2.95-3.379-3.92-4.984-.97-1.605-1.456-3.23-1.456-4.872 0-2.24 1.045-4.387 3.136-6.44 2.09-2.053 5.413-4.088 9.968-6.104 2.165-.97 4.125-1.643 5.88-2.016s3.304-.56 4.648-.56c1.717 0 3.136.224 4.256.672 1.12.448 1.941.97 2.464 1.568 1.195 1.419 1.792 2.837 1.792 4.256 0 1.792-.784 3.323-2.352 4.592-1.568 1.27-3.024 2.315-4.368 3.136a2.827 2.827 0 0 0-.672.336 3.67 3.67 0 0 0-.56.448c-.448.299-.71.485-.784.56-.672.597-1.344.747-2.016.448-.373-.224-.56-.523-.56-.896s.187-.672.56-.896c.821-.373 1.773-1.101 2.856-2.184a25.63 25.63 0 0 0 2.912-3.472c.859-1.232 1.288-2.296 1.288-3.192 0-.448-.112-.821-.336-1.12-.448-.448-1.344-.672-2.688-.672-1.643 0-3.565.373-5.768 1.12a32.935 32.935 0 0 0-6.384 2.968c-2.053 1.232-3.752 2.576-5.096 4.032-1.344 1.456-2.016 2.893-2.016 4.312 0 1.27.43 2.483 1.288 3.64a29.684 29.684 0 0 0 2.856 3.304c2.09-.896 4.573-1.661 7.448-2.296a93.344 93.344 0 0 1 8.96-1.512c3.099-.373 6.104-.635 9.016-.784 2.912-.15 5.413-.224 7.504-.224h1.556l.009-.026c.595-1.959 1.455-4.414 2.579-7.366 1.195-3.136 2.875-6.533 5.04-10.192 1.643-2.763 3.696-6.01 6.16-9.744 2.464-3.733 5.264-7.56 8.4-11.48a116.842 116.842 0 0 1 9.968-10.976c3.51-3.397 7.112-6.141 10.808-8.232C103.432 1.046 107.109 0 110.768 0zM18.816 69.552c-1.419.523-3.155 1.512-5.208 2.968-2.053 1.456-3.864 2.968-5.432 4.536-1.717 1.717-2.8 3.136-3.248 4.256 0 .075-.019.15-.056.224a.78.78 0 0 0-.056.336c0 .448.448.71 1.344.784.821 0 2.333-.317 4.536-.952A23.14 23.14 0 0 0 16.8 78.96c2.539-1.568 3.808-3.36 3.808-5.376 0-1.27-.597-2.613-1.792-4.032zm90.272-65.408c-1.344 0-3.117.653-5.32 1.96-2.203 1.307-4.573 3.005-7.112 5.096a80.03 80.03 0 0 0-7.392 6.944c-3.659 3.883-7.187 8.27-10.584 13.16-3.397 4.89-6.403 9.707-9.016 14.448-2.613 4.741-4.667 8.941-6.16 12.6 1.419-.821 3.453-2.09 6.104-3.808 2.65-1.717 5.544-3.715 8.68-5.992a113.281 113.281 0 0 0 8.848-7.112 198.819 198.819 0 0 0 5.208-4.872 137.898 137.898 0 0 0 6.384-6.608 85.796 85.796 0 0 0 6.16-7.616c1.904-2.65 3.453-5.301 4.648-7.952 1.195-2.65 1.792-5.133 1.792-7.448 0-1.045-.205-1.773-.616-2.184-.41-.41-.952-.616-1.624-.616zm72.464 28.448c.672.97 1.568 2.259 2.688 3.864s1.941 2.744 2.464 3.416a74.59 74.59 0 0 1 1.344-.784c.523-.299 1.12-.635 1.792-1.008.597-.373 1.27-.765 2.016-1.176.747-.41 1.53-.84 2.352-1.288 2.09-1.27 3.808-2.128 5.152-2.576 1.344-.448 2.203-.71 2.576-.784h.336c.672 0 1.008.261 1.008.784 0 .597-.485 1.27-1.456 2.016-1.493.97-3.64 2.352-6.44 4.144-2.8 1.792-5.47 3.435-8.008 4.928-.523.523-1.008.784-1.456.784-1.045 0-2.427-1.68-4.144-5.04a30.837 30.837 0 0 1-1.4-2.688c-.41-.896-.69-1.643-.84-2.24a4.228 4.228 0 0 1-.224-1.344v-.224c.224-.597.579-.99 1.064-1.176.485-.187.877-.056 1.176.392zM291.648 49.84c.448 0 .821.112 1.12.336a7.39 7.39 0 0 1 1.848 1.176c.56.485.84 1.027.84 1.624 0 .672-.373 1.381-1.12 2.128l-2.352 2.24a211.689 211.689 0 0 0-6.384 6.44c-2.315 2.427-4.312 4.76-5.992 7-1.68 2.24-2.595 4.032-2.744 5.376a2.114 2.114 0 0 0-.112.672v.672c0 1.045.205 1.755.616 2.128.41.373.84.56 1.288.56 1.12 0 2.445-.448 3.976-1.344A39.05 39.05 0 0 0 287 75.88c1.381-1.083 2.37-1.885 2.968-2.408a321.75 321.75 0 0 0 6.384-5.88 772.647 772.647 0 0 1 6.16-5.768c0-.672.336-1.288 1.008-1.848.672-.56 1.717-.84 3.136-.84 1.643 0 2.893.71 3.752 2.128.859 1.419 1.288 3.21 1.288 5.376 0 1.717-.261 3.677-.784 5.88s-1.344 4.573-2.464 7.112c5.227-2.315 10.08-4.741 14.56-7.28 4.48-2.539 8.699-5.637 12.656-9.296.448-.373.99-.896 1.624-1.568a93.034 93.034 0 0 1 1.848-1.904 22.852 22.852 0 0 1 2.072-1.68c.635-.448 1.064-.635 1.288-.56.373.15.56.448.56.896 0 .299-.187.747-.56 1.344-.299.523-.784 1.157-1.456 1.904-.672.747-1.53 1.68-2.576 2.8a70.176 70.176 0 0 1-13.776 10.696c-5.077 3.024-11.163 5.955-18.256 8.792a129.515 129.515 0 0 1-12.936 20.384c-4.965 6.421-10.267 12.077-15.904 16.968-5.637 4.89-11.368 8.736-17.192 11.536-5.824 2.8-11.461 4.2-16.912 4.2-2.24 0-4.387-.373-6.44-1.12-2.053-.747-3.752-1.83-5.096-3.248-1.344-1.419-2.016-3.136-2.016-5.152 0-4.48 1.456-8.493 4.368-12.04 2.912-3.547 6.421-6.664 10.528-9.352a64.024 64.024 0 0 1 6.328-3.92 156.015 156.015 0 0 1 6.552-3.36 204.361 204.361 0 0 1 6.16-2.856 581.02 581.02 0 0 0 5.376-2.408c1.717-.747 3.883-1.605 6.496-2.576 2.613-.97 5.413-1.96 8.4-2.968a492.795 492.795 0 0 1 8.904-2.912c2.95-.933 5.619-1.736 8.008-2.408 1.12-2.165 2.11-4.685 2.968-7.56.859-2.875 1.288-5.395 1.288-7.56 0-1.643-.261-2.837-.784-3.584a163.327 163.327 0 0 0-3.752 3.864 93.744 93.744 0 0 1-3.304 3.36 101.728 101.728 0 0 1-4.144 3.752 55.561 55.561 0 0 1-7.168 5.32c-2.464 1.53-4.779 2.296-6.944 2.296s-3.92-.896-5.264-2.688c-.821-1.12-1.232-2.464-1.232-4.032 0-2.464.896-5.096 2.688-7.896 1.792-2.8 3.957-5.432 6.496-7.896.15-.224.523-.672 1.12-1.344.597-.672 1.232-1.381 1.904-2.128.672-.747 1.195-1.27 1.568-1.568.075-.373.243-.84.504-1.4.261-.56.653-1.101 1.176-1.624.448-.523.99-.99 1.624-1.4.635-.41 1.25-.616 1.848-.616zm7.84 36.624c-5.525 1.344-11.312 3.155-17.36 5.432a181.414 181.414 0 0 0-17.64 7.728c-5.712 2.875-10.883 5.917-15.512 9.128-4.63 3.21-8.307 6.421-11.032 9.632-2.725 3.21-4.088 6.31-4.088 9.296 0 1.867.69 3.267 2.072 4.2 1.381.933 3.23 1.4 5.544 1.4 3.136 0 6.795-.765 10.976-2.296 4.181-1.53 8.456-3.64 12.824-6.328a64.922 64.922 0 0 0 11.928-9.408c1.568-1.568 3.435-3.621 5.6-6.16a261.214 261.214 0 0 0 6.552-8.008c2.203-2.8 4.219-5.507 6.048-8.12 1.83-2.613 3.192-4.779 4.088-6.496zm-41.776-62.16c.896 0 1.68.373 2.352 1.12A9.14 9.14 0 0 1 261.688 28c.41.97.616 1.792.616 2.464 0 .299-.168.765-.504 1.4-.336.635-.69.952-1.064.952-.224 0-.485-.261-.784-.784l-.224-.336v-.112c-.299-.448-.71-.672-1.232-.672h-.336c-3.21 1.419-6.272 3.435-9.184 6.048-2.912 2.613-5.675 5.544-8.288 8.792a103.814 103.814 0 0 0-7.112 9.968c-2.128 3.397-4.013 6.664-5.656 9.8-.299.747-.672 1.55-1.12 2.408a171.46 171.46 0 0 0-1.344 2.632c-.224.448-.43.896-.616 1.344-.187.448-.355.896-.504 1.344 2.315-2.837 5.021-5.581 8.12-8.232a45.86 45.86 0 0 1 10.024-6.552c3.584-1.717 7.168-2.576 10.752-2.576 1.493 0 2.987.261 4.48.784 1.493.523 2.744 1.363 3.752 2.52 1.008 1.157 1.512 2.632 1.512 4.424 0 1.941-.672 3.845-2.016 5.712-1.344 1.867-3.099 3.64-5.264 5.32a43.498 43.498 0 0 1-7 4.424c-2.501 1.27-4.91 2.259-7.224 2.968-2.315.71-4.293 1.064-5.936 1.064-1.344 0-2.8-.392-4.368-1.176-1.568-.784-2.352-2.11-2.352-3.976V76.72c-.448-.373-.672-.859-.672-1.456s.224-1.12.672-1.568c.448-.448 1.045-.635 1.792-.56.821 0 1.904-.093 3.248-.28a36.298 36.298 0 0 0 3.808-.728c1.195-.299 1.979-.56 2.352-.784.299-.15.523-.243.672-.28l.224-.056c.373 0 .56.224.56.672a.673.673 0 0 1-.448.448c-.15.224-.41.467-.784.728-.373.261-.821.579-1.344.952a42.47 42.47 0 0 1-3.192 1.904c-1.232.672-2.483 1.12-3.752 1.344v1.232c0 .821.205 1.381.616 1.68.41.299 1.027.448 1.848.448 1.867 0 4.144-.635 6.832-1.904 2.688-1.27 5.339-2.893 7.952-4.872 2.613-1.979 4.797-4.05 6.552-6.216 1.755-2.165 2.632-4.181 2.632-6.048 0-1.045-.392-1.773-1.176-2.184-.784-.41-1.699-.616-2.744-.616-1.419 0-2.987.205-4.704.616-1.717.41-3.285.915-4.704 1.512-3.733 1.493-7.355 3.827-10.864 7-3.51 3.173-6.347 6.515-8.512 10.024l-2.576 4.032a4.45 4.45 0 0 1-.56.672c-.224.224-.56.336-1.008.336-.97 0-1.68-.448-2.128-1.344-.448-.896-.672-1.68-.672-2.352 0-1.493.467-3.472 1.4-5.936.933-2.464 2.072-5.04 3.416-7.728a154.685 154.685 0 0 1 4.032-7.56c1.344-2.352 2.464-4.2 3.36-5.544 1.792-2.837 4.032-5.955 6.72-9.352a132.993 132.993 0 0 1 8.568-9.8c3.024-3.136 5.843-5.675 8.456-7.616.373-.299.84-.579 1.4-.84.56-.261 1.101-.392 1.624-.392z" fill="#EEE" fill-rule="nonzero"/>
</svg>
