<svg width="170" height="63" viewBox="0 0 170 63" xmlns="http://www.w3.org/2000/svg">
    <g fill-rule="nonzero" fill="none">
        <path d="M101.58 48.571v-2.866l-.587-.467h-1.24v-.067l-.588.467v2.933l.588.467h1.24l.588-.467zm-23.63-1v1.534h1.501l.457-.6v-.467l-.457-.467H77.95zm28.135-1.466v-.334l-.457-.6h-1.436v1.534h1.436l.457-.6zm-18.343.066v-.4l-.457-.533h-1.436v1.533h1.436l.457-.6zm-26.046 6.734-1.763-9.934h-3.59l2.48 5.467-2.48 5.4H69.92l-1.371-.933h-6.854zm45.694-1 1.959-10.134H60.716l1.632 10.134h45.042zm-3.982-5.134v-2.4h2.612l.848 1v1.134l-.848 1h-1.828v2.333h-.784v-2.267l-.456-.4.456-.4zm-4.895 0v-1.466l.979-.934h1.893l.979.934v1.466l.457.4-.457.4v1.4l-.98.934h-1.892l-.98-.934v-1.4l-.456-.4.457-.4zm-4.896 0v-2.4h.783v2.334h2.22V44.37h.783v2.334l.457.4-.457.466v2.334h-.783V47.57H94.4v2.334h-.783V47.57l-.457-.4.457-.4zm-3.786 1.2v.6l.587.467h1.175l.588-.467v-.6l-.588-.466h-1.37l-.98-.934v-1.266l.98-.934h1.696l.98.934v.933h-.784v-.6l-.522-.467h-1.11l-.522.467v.6l.522.467h1.436l.98.933v1.333h-.066l-.979.934h-1.828l-.979-.934v-1h.784zm-4.766-3.6h2.611l.849 1v1.067l-.849 1 1.11 2.333h-.848v.134l-1.11-2.334h-.98v2.334h-.783V47.57l-.457-.4.457-.4v-2.4zm-3.72 2.4v-2.4h3.263v.8h-2.48v1.534h1.893v.8h-1.893v1.6h2.48v.8h-3.264V47.57l-.457-.4.457-.4zm-4.178 0v-2.4h2.61l.85 1v1.067l-.523.6.522.6v1.2h.066l-.849 1h-2.676v-2.267l-.457-.4.457-.4zm-4.309 0v-2.4h2.611l.849 1v1.067l-.849 1 1.11 2.333h-.849v.134l-1.11-2.334h-.978v2.334h-.784V47.57l-.457-.4.457-.4zm-4.112.067.914-2.4h.848l2.024 5.467h-.783l-.523-1.4h-2.22l-.521 1.4h-.849l.849-2.334-.392-.4.653-.333zm-4.57-.067v-2.4h2.611l.849 1v1.067l-.522.6.522.6v1.2h.065l-.848 1h-2.677v-2.267l-.457-.4.457-.4zm27.94 7.4c-.719.534-2.285 1.934-3.069 2.667l-1.305-1.333-1.436 1.466-.588-.6 1.436-1.466c1.306-1.334 2.677-1.067 2.742.133 0 .267.13.2.13.067.131-1.534-2.219-2.267-3.525-.867l-1.37-1.4-1.437 1.467c-1.566-1.4-3.198-.467-3.002.6 0 .133.13.2.13-.067.13-1.067 1.567-1.4 2.677-.267l1.24 1.267-.98 1.467-1.305-1.334-1.436 1.467c-.718-.733-2.872-2.667-3.33-3.067-2.61-2-4.242-.666-4.242.4 0 1.534 2.023 1.667 2.415.867.196-.4-.13-.933-.457-.8-.13 0-.065.067-.065.133.065.2 0 .534-.392.467-.065-.067-.065-.067 0-.133.261-.267 0-.867-.457-.667-.065 0-.065 0-.065.067.065.133-.13.266-.326.2-.196 0-.392-.4-.196-.867.326-.733 1.827-1.067 3.46.333-1.11-.533-1.763-.666-2.35-.466-.066 0-.066.066.065.066.457.067.914.267 1.37.6-.195.534.262 1.067.914 1 .784-.066 1.502.334 1.894.667.391.4 1.11 1.067 1.37 1.333-2.089 2.067-3.59.8-3.59-.133 0-1.2 1.501-1.4 1.828-.667.13.2.261.2.196 0-.327-1.066-2.285-.933-2.285.667 0 1.333 2.22 2.667 4.57.8l1.305 1.333 1.501-1.533.588.6-1.502 1.533 1.959 2 1.697-1.733-1.24-1.333 1.24-1.267 1.24 1.267 1.436-1.467c2.612 2.4 4.635 1.133 4.505-.4-.066-.733-.523-1.333-1.371-1.333-.718 0-1.371.733-1.045 1.466.066.134.261.2.13-.066-.13-.467.262-1.067.915-1.067.457.067.914.333 1.044 1 .261 1.467-1.697 2.467-3.982.333 0 0 .914-.866 1.632-1.533.327-.333.849-.533 1.502-.533.979 0 1.305-.467 1.175-1 .26-.334 1.175-.6 1.37-.6.131 0 .131-.067.066-.067-.588-.2-1.24-.067-2.35.467 1.762-1.467 3.394-1 3.525-.134 0 .334-.065.534-.261.6-.261.067-.457-.066-.457-.2 0-.066-.066-.066-.066-.066-.26.066-.391.266-.391.4 0 .066 0 .066-.065.066-.066 0-.131-.066-.066-.266 0-.067 0-.067-.13-.067-.523.067-.588 1 .391 1.2.588.133 1.24-.267 1.306-1.133.13-1.867-2.611-2.2-4.83-.534zm-10.119 4.4-.587-.6 1.24-1.266.587.6-1.24 1.266zm2.35-3.6 1.24-1.266.588.6-1.24 1.266-.588-.6zm1.502 4.934-1.24 1.266-.588-.6 1.24-1.266.588.6zm-1.045-1.534-.587-.6 1.24-1.266.587.6-1.24 1.266zm2.742-.133-.588-.6 1.24-1.267.588.6-1.24 1.267zm26.111-15.267h-3.59l-1.763 9.934h-6.789l-1.436.933h13.578l-2.48-5.4 2.48-5.467zm-38.122 3.2v-.4l-.457-.533h-1.436v1.533h1.436l.457-.6zm-5.353-.733-.849 2.267h1.632l-.783-2.267zm-3.264 3.067v-.467l-.457-.467H64.96v1.534h1.501l.457-.6zm12.925-2.334v-.4l-.457-.6H77.95v1.534h1.436l.457-.534zm-12.99 0v-.4l-.457-.6H64.96v1.534h1.436l.457-.534z" fill="#CA9D75"/>
        <path d="M78.615 0v2.675h-.129L76.96.83h-2.704v10.258l1.343 1.014v.111h-4.912v-.11l1.361-1.015V.83h-2.722l-1.508 1.845h-.13V0h10.927zm4.654 5.59h6.236V1.107L88.255.11V0h4.69v.11l-1.251.997v10l1.25.995v.111h-4.69v-.11l1.251-.997V6.44h-6.236v4.667l1.251.996v.111h-4.71v-.11l1.252-.997v-10L79.81.112V0h4.709v.11l-1.25.997V5.59zm11 6.623v-.11l1.251-.997v-10L94.27.112V0h8.332v2.435h-.11L101.13.812H97.71V5.35h3.55l.957-1.291h.092v3.376h-.092l-.957-1.273h-3.55v5.22h3.79l1.416-2.029h.11v2.86H94.27zM43.665 30.096a7.983 7.983 0 0 1-2.667-.434 6.264 6.264 0 0 1-2.143-1.254 5.82 5.82 0 0 1-1.426-1.974c-.343-.769-.515-1.633-.515-2.592 0-.861.16-1.676.479-2.445a6.05 6.05 0 0 1 1.36-2.02c.59-.578 1.304-1.04 2.144-1.383.84-.345 1.781-.517 2.823-.517.393 0 .78.018 1.16.055a14.888 14.888 0 0 1 1.93.314c.258.061.46.11.608.148v2.416h-.11a6.99 6.99 0 0 0-.727-.765 5.33 5.33 0 0 0-1.95-1.135 3.715 3.715 0 0 0-1.168-.184 3.4 3.4 0 0 0-1.637.405 4.21 4.21 0 0 0-1.316 1.117 5.313 5.313 0 0 0-.873 1.678 6.779 6.779 0 0 0-.313 2.094c0 .849.12 1.62.359 2.316.239.695.56 1.288.965 1.78.405.492.874.87 1.408 1.135a3.742 3.742 0 0 0 1.683.396c.49 0 .941-.083 1.352-.249a5.03 5.03 0 0 0 1.094-.6c.32-.233.592-.476.819-.728.227-.252.408-.464.542-.637h.11v2.27a4.984 4.984 0 0 1-.597.24 11.19 11.19 0 0 1-.892.258 10.257 10.257 0 0 1-2.502.295zm5.482-6.144c0-.934.165-1.798.496-2.592a6.409 6.409 0 0 1 1.352-2.057 6.27 6.27 0 0 1 1.978-1.356 5.921 5.921 0 0 1 2.391-.488 6.65 6.65 0 0 1 2.428.442c.76.295 1.426.714 1.996 1.255a5.9 5.9 0 0 1 1.352 1.955c.331.763.497 1.605.497 2.528 0 .947-.169 1.817-.506 2.61a6.424 6.424 0 0 1-1.361 2.048 6.189 6.189 0 0 1-1.987 1.338c-.754.32-1.542.48-2.364.48a6.55 6.55 0 0 1-2.39-.443 6.23 6.23 0 0 1-2.006-1.246 5.844 5.844 0 0 1-1.37-1.946c-.338-.763-.506-1.605-.506-2.528zm2.41-.147c0 .836.107 1.59.321 2.26.215.67.5 1.242.856 1.716.355.473.763.836 1.223 1.088a2.963 2.963 0 0 0 2.897 0 3.813 3.813 0 0 0 1.233-1.088c.355-.474.637-1.046.846-1.716.208-.67.313-1.424.313-2.26 0-.849-.108-1.611-.322-2.288-.215-.676-.503-1.251-.865-1.725a4.015 4.015 0 0 0-1.242-1.097 2.958 2.958 0 0 0-1.453-.388c-.503 0-.984.13-1.444.388-.46.258-.864.627-1.214 1.107s-.628 1.057-.837 1.734c-.208.676-.312 1.433-.312 2.269zm11.404 6.088v-.11l1.251-.997v-10l-1.25-.995v-.111h4.856c1.226 0 2.207.227 2.943.683.735.455 1.103 1.125 1.103 2.01 0 .382-.067.73-.202 1.043a3.482 3.482 0 0 1-.515.848 3.85 3.85 0 0 1-.69.655 5.22 5.22 0 0 1-.745.462l2.079 3.579c.27.48.536.882.8 1.208.264.326.506.6.727.82a5.419 5.419 0 0 0 .974.794v.11a3.028 3.028 0 0 1-.45.084c-.227.03-.463.046-.708.046-.393 0-.74-.034-1.04-.101a2.475 2.475 0 0 1-.827-.35 3.193 3.193 0 0 1-.709-.656 6.99 6.99 0 0 1-.662-.996l-2.207-4.022H66.4v4.889l1.398.996v.11h-4.838zm3.44-11.438v4.704h1.692c.221 0 .43-.061.626-.184s.374-.292.533-.508c.16-.215.285-.46.377-.738a2.82 2.82 0 0 0 .138-.894c0-.43-.064-.797-.193-1.098a1.988 1.988 0 0 0-.524-.738 2.062 2.062 0 0 0-.754-.415 3.008 3.008 0 0 0-.883-.13H66.4zm17.457 8.08h.11v3.358h-9.252v-.11l1.25-.997v-10l-1.25-.995v-.111h4.69v.11l-1.25.997v10.276H82l1.858-2.528zm1.416 3.358v-.11l1.251-.997v-10l-1.25-.995v-.111h8.332v2.435h-.11l-1.362-1.623h-3.421v4.538h3.55l.957-1.291h.092v3.376h-.092l-.957-1.273h-3.55v5.22h3.79l1.416-2.029h.11v2.86h-8.756zm10.264-5.94c0-.935.166-1.8.497-2.593a6.409 6.409 0 0 1 1.352-2.057 6.27 6.27 0 0 1 1.978-1.356 5.921 5.921 0 0 1 2.39-.488 6.65 6.65 0 0 1 2.429.442c.76.295 1.426.714 1.996 1.255a5.9 5.9 0 0 1 1.352 1.955c.331.763.497 1.605.497 2.528 0 .947-.17 1.817-.506 2.61a6.424 6.424 0 0 1-1.362 2.048 6.189 6.189 0 0 1-1.986 1.338c-.754.32-1.542.48-2.364.48a6.55 6.55 0 0 1-2.391-.443 6.23 6.23 0 0 1-2.005-1.246 5.844 5.844 0 0 1-1.37-1.946c-.338-.763-.507-1.605-.507-2.528zm2.41-.148c0 .836.107 1.59.322 2.26.215.67.5 1.242.855 1.716.356.473.764.836 1.224 1.088a2.963 2.963 0 0 0 2.897 0 3.813 3.813 0 0 0 1.232-1.088c.356-.474.638-1.046.846-1.716.209-.67.313-1.424.313-2.26 0-.849-.107-1.611-.322-2.288-.214-.676-.502-1.251-.864-1.725a4.015 4.015 0 0 0-1.242-1.097 2.958 2.958 0 0 0-1.453-.388c-.503 0-.984.13-1.444.388-.46.258-.865.627-1.214 1.107-.35.48-.629 1.057-.837 1.734-.209.676-.313 1.433-.313 2.269zm11.331 6.088v-.11l1.325-1.052V19.23a26.89 26.89 0 0 0-1.205-1.236 3.14 3.14 0 0 0-.23-.203v-.111h3.017l7.818 8.855v-7.693l-1.527-1.051v-.111h3.881v.11l-1.343 1.052v11.05h-.864l-8.517-9.537v8.376l1.582 1.051v.11h-3.937zm15.93-11.9c0 .148-.015.33-.046.545-.03.215-.076.47-.138.765l-.22 1.052-.295 1.402h-.184a539.238 539.238 0 0 0-.515-2.454c-.061-.295-.107-.55-.138-.765a3.969 3.969 0 0 1-.046-.544c0-.271.065-.492.193-.665.13-.172.328-.258.598-.258.27 0 .47.086.598.258.129.173.193.394.193.665zm5.537-.516c.638 0 1.171.043 1.6.13.43.085.718.153.865.202v2.214h-.11a6.899 6.899 0 0 0-1.15-1.227 2.152 2.152 0 0 0-1.407-.507c-.43 0-.8.132-1.113.396-.313.265-.47.63-.47 1.098 0 .295.047.557.139.784.092.228.23.446.414.655.184.21.41.418.68.627.27.21.583.443.938.701.442.32.84.628 1.196.923.356.295.662.6.92.913.257.314.457.649.598 1.005.14.357.211.757.211 1.2 0 .492-.092.95-.276 1.374a3.273 3.273 0 0 1-.782 1.107c-.337.314-.75.56-1.241.738a4.82 4.82 0 0 1-1.656.267c-.772 0-1.431-.08-1.977-.24-.546-.16-.972-.32-1.279-.48a8.094 8.094 0 0 1-.064-.654 100.96 100.96 0 0 1-.055-.895c-.019-.32-.03-.645-.037-.978a15 15 0 0 1 .01-.922h.146c.148.369.313.747.497 1.135.184.387.405.74.662 1.06.258.32.555.582.892.784.338.203.74.305 1.205.305.552 0 1.006-.182 1.361-.544.356-.363.534-.821.534-1.375 0-.307-.043-.587-.129-.84a2.329 2.329 0 0 0-.395-.71 4.596 4.596 0 0 0-.672-.664c-.27-.221-.594-.46-.975-.72-.92-.639-1.612-1.25-2.078-1.835a3.148 3.148 0 0 1-.7-2.02c0-.48.093-.904.277-1.273a2.72 2.72 0 0 1 .772-.94c.331-.259.72-.456 1.168-.591a5.103 5.103 0 0 1 1.481-.203zM22.306 24.624c-1.545-.127-3.09-.824-3.09-.824s1.596-.443 3.142-.317c1.545.127 3.297.824 3.297.824s-1.803.507-3.349.317zm-4.74-.19S5.667 22.913 0 22.47v-.127c5.667.443 17.618.633 17.618.633l-.051.697v.76zm8.913.823c-.36 0-.67-.443-.67-.887 0-.443.36-.823.721-.823.36 0 .67.443.67.887-.052.506-.36.823-.721.823zm-8.14-.633c-.36 0-.67-.444-.618-.887 0-.444.36-.824.721-.76.361 0 .67.443.619.886-.052.444-.361.76-.722.76zM152.418 24.434l-.051-.76-.052-.698s11.997-.19 17.685-.633v.127c-5.637.443-17.582 1.964-17.582 1.964m-.724.19c-.362 0-.672-.317-.724-.76 0-.444.259-.824.62-.888.363 0 .673.317.725.76 0 .444-.259.824-.62.888m-8.171.633c-.362 0-.724-.317-.724-.823 0-.444.259-.887.672-.887.362 0 .724.316.724.823 0 .444-.31.824-.672.887m.827-.95s1.759-.697 3.31-.824c1.551-.063 3.154.317 3.154.317s-1.551.634-3.102.824c-1.552.19-3.362-.317-3.362-.317" fill="#1E1F23"/>
    </g>
</svg>
