<svg width="14" height="56" viewBox="0 0 14 56" xmlns="http://www.w3.org/2000/svg">
    <path d="M6.182 27.264c-.046-.052-.112-.3-.132-.54-.099-.99-.231-1.68-.356-1.804-.06-.065-.113-.26-.113-.437 0-.169-.125-.625-.27-1.002-.152-.385-.245-.808-.218-.964.033-.15.006-.241-.053-.196-.06.04-.145-.188-.185-.501a4.219 4.219 0 0 0-.317-1.127 9.85 9.85 0 0 1-.284-.696c-.072-.352-.825-1.804-1.195-2.319-.224-.319-.627-.683-.891-.827l-.476-.254-.343.391c-.191.222-.317.475-.277.586.04.104.02.189-.046.189-.113 0-.093 1.797.02 1.993.046.058.118.39.171.73.046.344.145.67.225.741.059.072.125.254.125.398 0 .319 1.34 2.917 1.69 3.256.139.136.251.293.251.351.013.306 1.638 1.726 2.595 2.266.178.105.244-.078.08-.234zm1.4 20.845c-.066-1.498-.066-1.498-.066-2.93 0-.645-.033-1.316-.08-1.505-.04-.189-.105-1.172-.138-2.181-.027-1.016-.093-2.729-.126-3.816-.04-1.094-.092-2.69-.118-3.55-.02-.872-.113-1.705-.212-1.888-.158-.273-.336-1.973-.31-2.976.013-.397-.06-.462-.924-.905-.852-.43-1.724-1.172-2.45-2.09-.145-.19-.337-.43-.416-.521-.488-.56-1.584-2.41-1.584-2.67 0-.078-.152-.463-.337-.86-.324-.69-.792-2.552-.819-3.23-.033-.937.31-2.298.674-2.676.204-.215.93-.54 1.168-.521.12.013.33.026.495.039.364.026 1.697 1.276 1.994 1.862.12.228.238.437.278.476.376.364 1.4 3.002 1.96 5.047.1.338.179.644.186.683.013.04.072.313.138.612.06.3.152.613.211.678.113.143.271 1.302.271 1.94 0 .183.066.313.145.313.08 0 .106.065.06.143-.159.254.429.143.68-.124.132-.15.284-.267.337-.254.138.046.713-.494.713-.67 0-.098.052-.183.112-.183.099 0 .713-1.172.825-1.569.02-.078.112-.436.225-.82.554-1.948.567-6.434.033-9.202a37.057 37.057 0 0 1-.258-1.44 1.255 1.255 0 0 0-.165-.455c-.086-.143-.066-.163.073-.085.152.085.152.072.02-.078-.1-.097-.172-.377-.172-.625 0-.24-.06-.475-.139-.52-.086-.053-.112-.138-.066-.216.046-.058.02-.228-.046-.358-.08-.143-.27-.768-.442-1.407a20.562 20.562 0 0 0-.416-1.439c-.066-.143-.251-.625-.416-1.08-.159-.45-.33-.873-.377-.951a1.366 1.366 0 0 1-.118-.293c-.027-.17-.41-1.055-.628-1.466-.145-.28-.799-1.471-1.307-2.396A16.536 16.536 0 0 0 5.436.917c-.43-.658-.462-.769-.257-.9C5.489-.17 6.684 1.17 7.35 2.48c.099.19.356.645.587 1.023.225.384.443.781.489.892.092.215.58 1.29.772 1.674.06.13.113.325.113.423 0 .11.092.228.21.273.133.046.192.137.146.209-.046.065-.02.267.046.442.066.176.126.365.14.417.006.059.118.3.243.547.132.254.245.476.258.515.013.032.066.312.125.612.06.306.212.846.35 1.23.132.378.211.763.178.867-.04.104-.006.3.073.469.238.494.568 2.142.707 3.549.079.735.171 1.387.217 1.432.133.124-.04 4.63-.204 5.62-.35 2.084-.693 3.126-1.374 4.116-.442.65-1.478 1.706-1.597 1.634-.047-.026-.231.046-.416.17-.179.117-.43.175-.548.13-.179-.065-.192-.013-.073.306a5.2 5.2 0 0 1 .178 1.01c.027.338.073.67.113.748.033.078.079.73.092 1.459.02.742.092 1.452.172 1.602.072.15.132.527.132.846 0 .606.112 2.638.145 2.638.007 0 .033 1.009.066 2.246.1 3.706.297 8.212.403 9.143.079.638-.132 1.407-.45 1.687-.243.215-.276.208-.626-.111-.205-.189-.37-.469-.37-.651-.007-.17-.033-.86-.066-1.537zm-.066 7.15c-.192-.26-.383-.495-.443-.514-.066-.026-.079-.092-.046-.15.04-.059-.046-.215-.204-.352-.152-.13-.278-.3-.278-.377 0-.079-.105-.261-.237-.41-.172-.19-.179-.242-.04-.157.178.104.178.085.007-.156a6.247 6.247 0 0 0-.608-.632c-.218-.202-.363-.378-.31-.378.165 0-.482-.827-1.142-1.458-.337-.32-.568-.586-.522-.586.053 0-.073-.183-.277-.385-1.618-1.621-2.087-3.151-.951-3.067.455.033 1.46.69 1.46.951 0 .11.17.365.408.593.231.221.416.43.416.488 0 .052.225.365.482.67.264.313.482.639.482.704 0 .072.35.488.76.918.422.443.759.866.752.95-.04.32.02.509.12.444.072-.04.197.084.283.26.092.183.231.332.31.332.08 0 .113.052.066.118-.04.065.073.273.264.481l.344.359.165-.313c.667-1.218 1.228-2.364 1.228-2.514 0-.097.053-.169.119-.169s.403-.417.759-.918c1.28-1.81 1.466-2.045 2.08-2.611.383-.352.7-.534.832-.489.297.117.27.56-.073 1.03-.145.207-.37.585-.482.833a17.36 17.36 0 0 1-.607 1.126 38.95 38.95 0 0 0-.568.99c-.093.163-.218.306-.284.306-.073 0-.112.085-.112.215 0 .11-.212.52-.462.918-.251.39-.786 1.361-1.189 2.162-.568 1.127-.805 1.465-1.056 1.51-.482.099-1.09-.207-1.446-.722z" fill="#000" fill-rule="nonzero"/>
</svg>
