<svg width="11" height="41" viewBox="0 0 11 41" xmlns="http://www.w3.org/2000/svg">
    <g fill="none" fill-rule="evenodd">
        <path stroke="#FFF" opacity=".4" d="M5.333 1.504v26.667"/>
        <path d="M5.333 29.505c1.067 0 2-.934 2-2 0-1.067-.933-2-2-2-1.066 0-2 .933-2 2 0 1.066.934 2 2 2zM5.333 4.171c1.067 0 2-.933 2-2 0-1.066-.933-2-2-2-1.066 0-2 .934-2 2 0 1.067.934 2 2 2zM10.667 33.505c-1.734 1.066-3.6 3.333-5.334 6.666-1.733-3.333-3.6-5.6-5.333-6.666h3.6l1.733 1.6 1.734-1.6h3.6z" fill="#FFF" fill-rule="nonzero"/>
    </g>
</svg>
