<svg width="14" height="57" viewBox="0 0 14 57" xmlns="http://www.w3.org/2000/svg">
    <path d="M6.182 27.435c-.046-.052-.112-.3-.132-.54-.099-.99-.231-1.68-.356-1.804-.06-.065-.113-.26-.113-.436 0-.17-.125-.625-.27-1.003-.152-.384-.245-.807-.218-.964.033-.15.006-.24-.053-.195-.06.039-.145-.189-.185-.502a4.219 4.219 0 0 0-.317-1.126 9.85 9.85 0 0 1-.284-.697c-.072-.352-.825-1.804-1.195-2.318-.224-.32-.627-.684-.891-.827l-.476-.254-.343.39c-.191.222-.317.476-.277.587.04.104.02.188-.046.188-.113 0-.093 1.798.02 1.993.046.059.118.39.171.73.046.345.145.67.225.742.059.071.125.254.125.397 0 .32 1.34 2.917 1.69 3.256.139.137.251.293.251.352.013.306 1.638 1.725 2.595 2.266.178.104.244-.078.08-.235zm1.4 20.845c-.066-1.497-.066-1.497-.066-2.93 0-.645-.033-1.315-.08-1.504-.04-.19-.105-1.172-.138-2.182-.027-1.016-.093-2.728-.126-3.816-.04-1.094-.092-2.69-.118-3.549-.02-.873-.113-1.706-.212-1.888-.158-.274-.336-1.974-.31-2.976.013-.398-.06-.463-.924-.906-.852-.43-1.724-1.172-2.45-2.09-.145-.189-.337-.43-.416-.52-.488-.56-1.584-2.41-1.584-2.67 0-.079-.152-.463-.337-.86-.324-.69-.792-2.553-.819-3.23-.033-.938.31-2.299.674-2.677.204-.215.93-.54 1.168-.52.12.012.33.025.495.038.364.026 1.697 1.277 1.994 1.863.12.228.238.436.278.475.376.365 1.4 3.002 1.96 5.047.1.339.179.645.186.684.013.039.072.312.138.612.06.3.152.612.211.677.113.143.271 1.303.271 1.94 0 .183.066.313.145.313.08 0 .106.065.06.144-.159.254.429.143.68-.124.132-.15.284-.267.337-.254.138.045.713-.495.713-.67 0-.099.052-.183.112-.183.099 0 .713-1.172.825-1.57.02-.078.112-.436.225-.82.554-1.947.567-6.434.033-9.202a37.057 37.057 0 0 1-.258-1.439 1.255 1.255 0 0 0-.165-.456c-.086-.143-.066-.162.073-.084.152.084.152.071.02-.078-.1-.098-.172-.378-.172-.625 0-.241-.06-.476-.139-.521-.086-.053-.112-.137-.066-.215.046-.059.02-.228-.046-.359-.08-.143-.27-.768-.442-1.406a20.562 20.562 0 0 0-.416-1.44c-.066-.143-.251-.624-.416-1.08-.159-.45-.33-.873-.377-.951a1.366 1.366 0 0 1-.118-.293c-.027-.17-.41-1.055-.628-1.465-.145-.28-.799-1.472-1.307-2.397a16.536 16.536 0 0 0-.614-1.035C5.006.43 4.974.32 5.179.189 5.489 0 6.684 1.342 7.35 2.651c.099.189.356.645.587 1.022.225.384.443.782.489.892.092.215.58 1.29.772 1.674.06.13.113.326.113.423 0 .11.092.228.21.274.133.045.192.136.146.208-.046.065-.02.267.046.443s.126.365.14.417c.006.058.118.3.243.547.132.254.245.475.258.514.013.033.066.313.125.612.06.306.212.847.35 1.231.132.378.211.762.178.866-.04.104-.006.3.073.469.238.495.568 2.142.707 3.549.079.736.171 1.387.217 1.433.133.123-.04 4.63-.204 5.62-.35 2.083-.693 3.125-1.374 4.115-.442.651-1.478 1.706-1.597 1.635-.047-.026-.231.045-.416.169-.179.117-.43.176-.548.13-.179-.065-.192-.013-.073.306a5.2 5.2 0 0 1 .178 1.01c.027.338.073.67.113.748.033.079.079.73.092 1.46.02.742.092 1.451.172 1.601.072.15.132.528.132.847 0 .605.112 2.637.145 2.637.007 0 .033 1.01.066 2.247.1 3.705.297 8.211.403 9.142.079.639-.132 1.407-.45 1.687-.243.215-.276.208-.626-.11-.205-.19-.37-.47-.37-.652-.007-.17-.033-.86-.066-1.537zm-.066 7.15c-.192-.26-.383-.494-.443-.514-.066-.026-.079-.091-.046-.15.04-.058-.046-.215-.204-.351-.152-.13-.278-.3-.278-.378 0-.078-.105-.26-.237-.41-.172-.19-.179-.241-.04-.157.178.105.178.085.007-.156a6.247 6.247 0 0 0-.608-.632c-.218-.201-.363-.377-.31-.377.165 0-.482-.827-1.142-1.459-.337-.319-.568-.586-.522-.586.053 0-.073-.182-.277-.384-1.618-1.622-2.087-3.152-.951-3.067.455.032 1.46.69 1.46.95 0 .111.17.365.408.593.231.221.416.43.416.488 0 .052.225.365.482.671.264.313.482.638.482.703 0 .072.35.489.76.919.422.442.759.866.752.95-.04.32.02.508.12.443.072-.039.197.085.283.26.092.183.231.333.31.333.08 0 .113.052.066.117-.04.065.073.273.264.482l.344.358.165-.313c.667-1.217 1.228-2.363 1.228-2.513 0-.098.053-.17.119-.17s.403-.416.759-.918c1.28-1.81 1.466-2.044 2.08-2.611.383-.352.7-.534.832-.488.297.117.27.56-.073 1.028-.145.209-.37.587-.482.834a17.36 17.36 0 0 1-.607 1.127 38.95 38.95 0 0 0-.568.99c-.093.162-.218.305-.284.305-.073 0-.112.085-.112.215 0 .111-.212.521-.462.919-.251.39-.786 1.36-1.189 2.162-.568 1.126-.805 1.465-1.056 1.51-.482.098-1.09-.208-1.446-.722z" fill="#FFF" fill-rule="nonzero"/>
</svg>
