<svg width="32" height="32" viewBox="0 0 32 32" xmlns="http://www.w3.org/2000/svg">
    <g fill="#000" fill-rule="evenodd">
        <path d="M17.236 12.668v-1.333c0-.655.435-.805.741-.805h1.874V7.672l-2.58-.014c-2.857 0-3.512 2.138-3.512 3.5v1.51h-1.653v3.335h1.667v8.339h3.335v-8.339h2.48l.121-1.31.185-2.025h-2.658"/>
        <path d="M16 32C7.177 32 0 24.822 0 16S7.177 0 16 0a15.992 15.992 0 0 1 4.93.774.538.538 0 1 1-.33 1.023 14.844 14.844 0 0 0-4.6-.721C7.77 1.076 1.075 7.77 1.075 16c0 8.23 6.695 14.924 14.925 14.924S30.924 24.23 30.924 16c0-2.45-.606-4.88-1.753-7.024a.538.538 0 0 1 .95-.507A16.03 16.03 0 0 1 32 16c0 8.822-7.178 16-16 16"/>
        <path d="M26.839 5.51a.534.534 0 0 1-.377-.154 15.051 15.051 0 0 0-2.208-1.792.538.538 0 0 1 .596-.896 16.363 16.363 0 0 1 2.366 1.92.538.538 0 0 1-.377.922"/>
    </g>
</svg>
