<svg width="33" height="32" viewBox="0 0 33 32" xmlns="http://www.w3.org/2000/svg">
    <g fill="#000" fill-rule="evenodd">
        <path d="M16.333 32c-8.822 0-16-7.178-16-16s7.178-16 16-16a15.982 15.982 0 0 1 4.93.774.537.537 0 1 1-.33 1.023 15.029 15.029 0 0 0-4.6-.722C8.103 1.076 1.41 7.77 1.41 16s6.695 14.924 14.924 14.924c8.23 0 14.925-6.695 14.925-14.924 0-2.45-.606-4.879-1.753-7.024a.538.538 0 1 1 .949-.507 16.03 16.03 0 0 1 1.88 7.53c0 8.823-7.178 16.001-16 16.001"/>
        <path d="M20.548 12.833a1.008 1.008 0 1 1 0-2.016 1.008 1.008 0 0 1 0 2.016zm-4.215 7.373A4.211 4.211 0 0 1 12.127 16a4.21 4.21 0 0 1 4.206-4.206A4.21 4.21 0 0 1 20.54 16a4.211 4.211 0 0 1-4.207 4.206zM19.62 7.868h-6.573a4.85 4.85 0 0 0-4.845 4.845v6.574a4.85 4.85 0 0 0 4.845 4.845h6.573a4.85 4.85 0 0 0 4.845-4.845v-6.574a4.85 4.85 0 0 0-4.845-4.845zM26.794 5.356a14.998 14.998 0 0 0-2.207-1.792.538.538 0 0 1 .596-.896 16.259 16.259 0 0 1 2.366 1.921.537.537 0 1 1-.755.767z"/>
    </g>
</svg>
