<svg width="20" height="20" viewBox="0 0 20 20" xmlns="http://www.w3.org/2000/svg">
    <g fill="none" fill-rule="evenodd">
        <path d="M0 0h20v20H0z"/>
        <path d="M7.225 9.751a6.59 6.59 0 0 0 3.05 3.037.62.62 0 0 0 .612-.046l1.956-1.304a.625.625 0 0 1 .593-.055l3.66 1.569a.623.623 0 0 1 .374.648 3.75 3.75 0 0 1-3.72 3.275c-5.868 0-10.625-4.757-10.625-10.625A3.75 3.75 0 0 1 6.4 2.53c.276-.034.54.12.648.375l1.57 3.662a.625.625 0 0 1-.052.588l-1.3 1.986a.62.62 0 0 0-.041.61z" stroke="#FFF" stroke-width="1.5" stroke-linecap="round" stroke-linejoin="round"/>
        <path stroke="#FFF" stroke-width="1.5" stroke-linecap="square" d="M12.5 4.375V7.5h3.125M13.5 6.5l3.025-3.004"/>
    </g>
</svg>
