<svg width="32" height="29" viewBox="0 0 32 29" xmlns="http://www.w3.org/2000/svg">
    <path d="M29.754.136C30.99.136 32 1.184 32 2.465v14.268c0 6.61-4.043 11.403-10.565 11.403v-5.82c3.702 0 4.95-2.36 4.95-5.96h-5.3c-1.235 0-2.246-1.048-2.246-2.329V2.464c0-1.28 1.01-2.328 2.246-2.328h8.67zm-18.839 0c1.236 0 2.246 1.048 2.246 2.329v14.268c0 6.61-4.043 11.403-10.565 11.403v-5.82c3.702 0 4.95-2.36 4.95-5.96h-5.3C1.01 16.355 0 15.307 0 14.026V2.464C0 1.184 1.01.136 2.246.136h8.67z" fill="#FFF" fill-rule="nonzero" opacity=".189"/>
</svg>
